<svg width="356" height="294" viewBox="0 0 356 294" fill="none" xmlns="http://www.w3.org/2000/svg">
<rect y="170.899" width="8" height="18.9387" rx="2" fill="#E11A38"/>
<rect x="12" y="151.509" width="8" height="57.7178" rx="2" fill="#02C173"/>
<rect x="24" y="160.528" width="8" height="39.681" rx="2" fill="#02C173"/>
<rect x="36" y="116.337" width="8" height="46.8957" rx="2" fill="#E11A38"/>
<rect x="48" y="136.178" width="8" height="15.3313" rx="2" fill="#02C173"/>
<rect x="60" y="142.491" width="8" height="27.9571" rx="2" fill="#E11A38"/>
<rect x="72" y="121.749" width="8" height="36.9755" rx="2" fill="#02C173"/>
<rect x="84" y="115.436" width="8" height="42.3865" rx="2" fill="#02C173"/>
<rect x="96" y="149.706" width="8" height="52.3067" rx="2" fill="#E11A38"/>
<rect x="108" y="198.405" width="8" height="23.4479" rx="2" fill="#E11A38"/>
<rect x="120" y="165.037" width="8" height="35.1718" rx="2" fill="#02C173"/>
<rect x="132" y="165.037" width="8" height="55.0123" rx="2" fill="#E11A38"/>
<rect x="144" y="143.393" width="8" height="27.9571" rx="2" fill="#02C173"/>
<rect x="156" y="122.65" width="8" height="120.847" rx="2" fill="#E11A38"/>
<rect x="168" y="131.669" width="8" height="15.3313" rx="2" fill="#02C173"/>
<rect x="180" y="82.9692" width="8" height="53.2086" rx="2" fill="#02C173"/>
<rect x="192" y="14.4297" width="8" height="128.061" rx="2" fill="#02C173"/>
<rect x="204" y="89.2822" width="8" height="73.0491" rx="2" fill="#E11A38"/>
<rect x="216" y="153.313" width="8" height="36.9755" rx="2" fill="#E11A38"/>
<rect x="228" y="188.485" width="8" height="30.6626" rx="2" fill="#E11A38"/>
<rect x="240" y="142.491" width="8" height="52.3067" rx="2" fill="#02C173"/>
<rect x="252" y="82.9692" width="8" height="101.908" rx="2" fill="#02C173"/>
<rect x="264" y="165.037" width="8" height="78.4601" rx="2" fill="#E11A38"/>
<rect x="276" y="139.785" width="8" height="66.7362" rx="2" fill="#02C173"/>
<rect x="288" y="184.877" width="8" height="44.1902" rx="2" fill="#E11A38"/>
<rect x="300" y="154.215" width="8" height="52.3067" rx="2" fill="#02C173"/>
<rect x="312" y="172.703" width="8" height="15.3313" rx="2" fill="#E11A38"/>
<rect x="324" y="161.88" width="8" height="36.9755" rx="2" fill="#02C173"/>
<rect x="336" y="174.957" width="8" height="27.0552" rx="2" fill="#E11A38"/>
<rect x="348" y="170.448" width="8" height="19.8405" rx="2" fill="#02C173"/>
<line x1="160.5" y1="102.408" x2="160.5" y2="293.5" stroke="#E11A38" stroke-linecap="round"/>
<line x1="100.5" y1="114.132" x2="100.5" y2="226.764" stroke="#E11A38" stroke-linecap="round"/>
<line x1="112.5" y1="201.61" x2="112.5" y2="247.506" stroke="#E11A38" stroke-linecap="round"/>
<line x1="40.5" y1="128.562" x2="40.5" y2="174.457" stroke="#E11A38" stroke-linecap="round"/>
<line x1="52.5" y1="117.739" x2="52.5" y2="163.635" stroke="#02C173" stroke-linecap="round"/>
<line x1="196.5" y1="0.5" x2="196.5" y2="77.0583" stroke="#02C173" stroke-linecap="round"/>
<line x1="256.5" y1="39.2793" x2="256.5" y2="135.678" stroke="#02C173" stroke-linecap="round"/>
<line x1="244.5" y1="157.42" x2="244.5" y2="203.316" stroke="#02C173" stroke-linecap="round"/>
<line x1="172.5" y1="116.837" x2="172.5" y2="162.733" stroke="#02C173" stroke-linecap="round"/>
<line x1="124.5" y1="157.42" x2="124.5" y2="215.04" stroke="#02C173" stroke-linecap="round"/>
<line x1="76.5" y1="105.113" x2="76.5" y2="151.009" stroke="#02C173" stroke-linecap="round"/>
<line x1="88.5" y1="89.7822" x2="88.5" y2="135.678" stroke="#02C173" stroke-linecap="round"/>
<line x1="280.5" y1="114.132" x2="280.5" y2="184.377" stroke="#02C173" stroke-linecap="round"/>
<line x1="304.5" y1="180.868" x2="304.5" y2="236.684" stroke="#02C173" stroke-linecap="round"/>
<line x1="352.5" y1="155.617" x2="352.5" y2="201.512" stroke="#02C173" stroke-linecap="round"/>
<line x1="208.5" y1="64.5308" x2="208.5" y2="179.868" stroke="#E11A38" stroke-linecap="round"/>
<line x1="220.5" y1="153.813" x2="220.5" y2="218.647" stroke="#E11A38" stroke-linecap="round"/>
<line x1="268.5" y1="133.972" x2="268.5" y2="198.807" stroke="#E11A38" stroke-linecap="round"/>
<line x1="292.5" y1="188.985" x2="292.5" y2="280.874" stroke="#E11A38" stroke-linecap="round"/>
<line x1="340.5" y1="161.93" x2="340.5" y2="226.764" stroke="#E11A38" stroke-linecap="round"/>
</svg>
