<svg width="65" height="26" viewBox="0 0 65 26" fill="none" xmlns="http://www.w3.org/2000/svg">
<rect x="0.5" y="0.5" width="64" height="25" rx="4.5" fill="white" stroke="#02C121"/>
<path d="M37.3672 13.6772H35.0249L35.0122 12.6934H37.1387C37.4899 12.6934 37.7967 12.6341 38.0591 12.5156C38.3215 12.3971 38.5246 12.2279 38.6685 12.0078C38.8166 11.7835 38.8906 11.5169 38.8906 11.208C38.8906 10.8695 38.825 10.5944 38.6938 10.3828C38.5669 10.167 38.3701 10.0104 38.1035 9.91309C37.8411 9.81152 37.5068 9.76074 37.1006 9.76074H35.2979V18H34.0728V8.75781H37.1006C37.5745 8.75781 37.9977 8.80648 38.3701 8.90381C38.7425 8.99691 39.0578 9.14502 39.3159 9.34814C39.5783 9.54704 39.7772 9.80094 39.9126 10.1099C40.048 10.4188 40.1157 10.7891 40.1157 11.2207C40.1157 11.6016 40.0184 11.9465 39.8237 12.2554C39.6291 12.5601 39.3582 12.8097 39.0112 13.0044C38.6685 13.1991 38.2664 13.3239 37.8052 13.3789L37.3672 13.6772ZM37.3101 18H34.5425L35.2344 17.0034H37.3101C37.6994 17.0034 38.0295 16.9357 38.3003 16.8003C38.5754 16.6649 38.7848 16.4744 38.9287 16.229C39.0726 15.9793 39.1445 15.6852 39.1445 15.3467C39.1445 15.0039 39.0832 14.7077 38.9604 14.458C38.8377 14.2083 38.6452 14.0158 38.3828 13.8804C38.1204 13.745 37.7819 13.6772 37.3672 13.6772H35.6216L35.6343 12.6934H38.021L38.2812 13.0488C38.7256 13.0869 39.1022 13.2139 39.4111 13.4297C39.7201 13.6413 39.9549 13.9121 40.1157 14.2422C40.2808 14.5723 40.3633 14.9362 40.3633 15.334C40.3633 15.9095 40.2363 16.3962 39.9824 16.7939C39.7327 17.1875 39.3794 17.488 38.9224 17.6953C38.4653 17.8984 37.9279 18 37.3101 18ZM47.46 8.75781H48.6787V15.0103C48.6787 15.7043 48.5243 16.2819 48.2153 16.7432C47.9064 17.2044 47.4959 17.5514 46.9839 17.7842C46.4761 18.0127 45.9238 18.127 45.3271 18.127C44.7008 18.127 44.1338 18.0127 43.626 17.7842C43.1224 17.5514 42.7225 17.2044 42.4263 16.7432C42.1343 16.2819 41.9883 15.7043 41.9883 15.0103V8.75781H43.2007V15.0103C43.2007 15.4927 43.2896 15.8905 43.4673 16.2036C43.645 16.5168 43.8926 16.7495 44.21 16.9019C44.5316 17.0542 44.904 17.1304 45.3271 17.1304C45.7546 17.1304 46.127 17.0542 46.4443 16.9019C46.766 16.7495 47.0156 16.5168 47.1934 16.2036C47.3711 15.8905 47.46 15.4927 47.46 15.0103V8.75781ZM51.0273 8.75781L53.4268 13.3979L55.8325 8.75781H57.2227L54.0361 14.5469V18H52.811V14.5469L49.6245 8.75781H51.0273Z" fill="#02C121"/>
<path d="M24.2 9L18.089 15.111C18.0053 15.1954 17.9058 15.2623 17.7961 15.308C17.6864 15.3537 17.5688 15.3772 17.45 15.3772C17.3312 15.3772 17.2136 15.3537 17.1039 15.308C16.9942 15.2623 16.8947 15.1954 16.811 15.111L14.489 12.789C14.4053 12.7046 14.3058 12.6377 14.1961 12.592C14.0864 12.5463 13.9688 12.5228 13.85 12.5228C13.7312 12.5228 13.6136 12.5463 13.5039 12.592C13.3942 12.6377 13.2947 12.7046 13.211 12.789L8 18" stroke="#02C121" stroke-width="1.5" stroke-linecap="round" stroke-linejoin="round"/>
<path d="M24.2 12.6V9H20.6" stroke="#02C121" stroke-width="1.5" stroke-linecap="round" stroke-linejoin="round"/>
</svg>
