<svg width="360" height="50" viewBox="0 0 360 50" fill="none" xmlns="http://www.w3.org/2000/svg">
<rect width="360" height="50" rx="25" fill="#E3B12F" fill-opacity="0.2"/>
<path d="M163.047 27.0239H165.33C165.269 27.8319 165.045 28.5485 164.658 29.1738C164.27 29.7936 163.731 30.2806 163.039 30.6348C162.347 30.9889 161.509 31.166 160.524 31.166C159.766 31.166 159.082 31.0332 158.474 30.7676C157.87 30.4964 157.353 30.1118 156.921 29.6138C156.495 29.1102 156.169 28.507 155.942 27.8042C155.715 27.0959 155.602 26.3018 155.602 25.4219V24.5005C155.602 23.6206 155.718 22.8265 155.95 22.1182C156.183 21.4098 156.515 20.8066 156.946 20.3086C157.383 19.805 157.906 19.4176 158.515 19.1465C159.129 18.8753 159.816 18.7397 160.574 18.7397C161.559 18.7397 162.392 18.9224 163.072 19.2876C163.753 19.6473 164.281 20.1426 164.658 20.7734C165.034 21.4043 165.261 22.1292 165.338 22.9482H163.056C163.011 22.4391 162.901 22.0075 162.724 21.6533C162.552 21.2992 162.292 21.0308 161.943 20.8481C161.6 20.66 161.144 20.5659 160.574 20.5659C160.131 20.5659 159.741 20.6489 159.403 20.8149C159.071 20.981 158.795 21.23 158.573 21.562C158.352 21.8885 158.186 22.298 158.075 22.7905C157.965 23.2775 157.909 23.842 157.909 24.4839V25.4219C157.909 26.0361 157.959 26.5868 158.059 27.0737C158.158 27.5607 158.313 27.973 158.523 28.3105C158.734 28.6481 159.005 28.9054 159.337 29.0825C159.669 29.2596 160.065 29.3481 160.524 29.3481C161.083 29.3481 161.537 29.2596 161.885 29.0825C162.239 28.9054 162.508 28.6453 162.69 28.3022C162.879 27.9591 162.998 27.533 163.047 27.0239ZM171.879 29.0908V24.9487C171.879 24.6444 171.827 24.3815 171.722 24.1602C171.617 23.9388 171.456 23.7673 171.24 23.6455C171.024 23.5238 170.75 23.4629 170.418 23.4629C170.125 23.4629 169.868 23.5127 169.646 23.6123C169.431 23.7119 169.265 23.853 169.148 24.0356C169.032 24.2127 168.974 24.4175 168.974 24.6499H166.774C166.774 24.2791 166.863 23.9277 167.04 23.5957C167.217 23.2581 167.469 22.9593 167.795 22.6992C168.127 22.4336 168.523 22.2261 168.982 22.0767C169.447 21.9272 169.967 21.8525 170.543 21.8525C171.224 21.8525 171.83 21.9688 172.361 22.2012C172.898 22.4281 173.318 22.7712 173.623 23.2305C173.932 23.6898 174.087 24.2681 174.087 24.9653V28.8833C174.087 29.3315 174.115 29.7161 174.17 30.0371C174.231 30.3525 174.32 30.6265 174.436 30.8589V31H172.203C172.098 30.7731 172.018 30.4854 171.962 30.1367C171.907 29.7826 171.879 29.4339 171.879 29.0908ZM172.187 25.5298L172.203 26.833H170.817C170.474 26.833 170.172 26.869 169.912 26.9409C169.652 27.0073 169.439 27.1069 169.273 27.2397C169.107 27.367 168.982 27.522 168.899 27.7046C168.816 27.8817 168.775 28.0837 168.775 28.3105C168.775 28.5319 168.825 28.7311 168.924 28.9082C169.029 29.0853 169.179 29.2264 169.373 29.3315C169.572 29.4312 169.804 29.481 170.07 29.481C170.457 29.481 170.795 29.4035 171.083 29.2485C171.37 29.0881 171.594 28.8944 171.755 28.6675C171.915 28.4406 172.001 28.2248 172.012 28.02L172.643 28.9663C172.566 29.1932 172.449 29.4339 172.294 29.6885C172.139 29.943 171.94 30.181 171.697 30.4023C171.453 30.6237 171.16 30.8063 170.817 30.9502C170.474 31.0941 170.075 31.166 169.622 31.166C169.041 31.166 168.52 31.0498 168.061 30.8174C167.602 30.585 167.239 30.2668 166.974 29.8628C166.708 29.4588 166.575 28.9995 166.575 28.4849C166.575 28.009 166.664 27.5884 166.841 27.2231C167.018 26.8579 167.281 26.5508 167.629 26.3018C167.978 26.0472 168.41 25.8563 168.924 25.729C169.444 25.5962 170.039 25.5298 170.709 25.5298H172.187ZM178.213 23.936V31H176.021V22.0186H178.08L178.213 23.936ZM177.864 26.1855H177.217C177.222 25.5326 177.311 24.9404 177.482 24.4092C177.654 23.8779 177.895 23.4214 178.205 23.0396C178.52 22.6577 178.894 22.3644 179.325 22.1597C179.757 21.9549 180.238 21.8525 180.77 21.8525C181.201 21.8525 181.591 21.9134 181.94 22.0352C182.289 22.1569 182.587 22.3506 182.836 22.6162C183.091 22.8818 183.285 23.2305 183.417 23.6621C183.556 24.0882 183.625 24.6139 183.625 25.2393V31H181.417V25.2227C181.417 24.8132 181.356 24.4894 181.234 24.2515C181.118 24.0135 180.947 23.8447 180.72 23.7451C180.498 23.6455 180.224 23.5957 179.898 23.5957C179.56 23.5957 179.264 23.6649 179.01 23.8032C178.761 23.936 178.55 24.1214 178.379 24.3594C178.213 24.5973 178.086 24.8713 177.997 25.1812C177.909 25.491 177.864 25.8258 177.864 26.1855ZM189.245 29.4395C189.555 29.4395 189.831 29.3786 190.075 29.2568C190.318 29.1351 190.512 28.9635 190.656 28.7422C190.805 28.5208 190.885 28.2635 190.896 27.9702H192.963C192.952 28.5789 192.781 29.124 192.449 29.6055C192.117 30.0869 191.674 30.4688 191.121 30.751C190.573 31.0277 189.958 31.166 189.278 31.166C188.586 31.166 187.983 31.0498 187.468 30.8174C186.954 30.585 186.525 30.2612 186.182 29.8462C185.844 29.4312 185.59 28.9497 185.418 28.4019C185.252 27.854 185.169 27.2674 185.169 26.6421V26.3765C185.169 25.7511 185.252 25.1646 185.418 24.6167C185.59 24.0688 185.844 23.5874 186.182 23.1724C186.525 22.7573 186.954 22.4336 187.468 22.2012C187.983 21.9688 188.583 21.8525 189.27 21.8525C189.994 21.8525 190.631 21.9937 191.179 22.2759C191.732 22.5581 192.164 22.9565 192.474 23.4712C192.789 23.9858 192.952 24.5918 192.963 25.2891H190.896C190.885 24.9681 190.813 24.6803 190.681 24.4258C190.548 24.1712 190.36 23.9665 190.116 23.8115C189.873 23.6566 189.577 23.5791 189.228 23.5791C188.857 23.5791 188.547 23.6566 188.298 23.8115C188.055 23.9665 187.864 24.1795 187.726 24.4507C187.593 24.7163 187.499 25.0151 187.443 25.3472C187.394 25.6737 187.369 26.0168 187.369 26.3765V26.6421C187.369 27.0073 187.394 27.356 187.443 27.688C187.499 28.02 187.593 28.3188 187.726 28.5845C187.864 28.8446 188.055 29.0521 188.298 29.207C188.547 29.362 188.863 29.4395 189.245 29.4395ZM198.458 31.166C197.778 31.166 197.166 31.0553 196.624 30.834C196.082 30.6126 195.62 30.3055 195.238 29.9126C194.861 29.5142 194.571 29.0521 194.366 28.5264C194.167 27.9951 194.067 27.4251 194.067 26.8164V26.4844C194.067 25.7926 194.167 25.1646 194.366 24.6001C194.565 24.0301 194.848 23.5404 195.213 23.1309C195.578 22.7214 196.015 22.4059 196.524 22.1846C197.034 21.9632 197.595 21.8525 198.209 21.8525C198.846 21.8525 199.408 21.9604 199.895 22.1763C200.382 22.3866 200.788 22.6854 201.115 23.0728C201.441 23.4601 201.688 23.925 201.854 24.4673C202.02 25.0041 202.103 25.599 202.103 26.252V27.1733H195.063V25.6626H199.944V25.4966C199.933 25.1479 199.867 24.8298 199.745 24.542C199.623 24.2487 199.435 24.0163 199.181 23.8447C198.926 23.6676 198.597 23.5791 198.193 23.5791C197.866 23.5791 197.581 23.651 197.338 23.7949C197.1 23.9333 196.901 24.1325 196.74 24.3926C196.585 24.6471 196.469 24.9515 196.392 25.3057C196.314 25.6598 196.275 26.0527 196.275 26.4844V26.8164C196.275 27.1927 196.325 27.5413 196.425 27.8623C196.53 28.1833 196.682 28.4627 196.881 28.7007C197.086 28.9331 197.33 29.1157 197.612 29.2485C197.9 29.3758 198.226 29.4395 198.591 29.4395C199.051 29.4395 199.466 29.3509 199.836 29.1738C200.213 28.9912 200.539 28.7228 200.816 28.3687L201.92 29.5142C201.732 29.7909 201.477 30.0565 201.156 30.311C200.841 30.5656 200.459 30.7731 200.011 30.9336C199.562 31.0885 199.045 31.166 198.458 31.166ZM205.896 18.25V31H203.696V18.25H205.896Z" fill="#E3B12F"/>
</svg>
