<svg width="205" height="200" viewBox="0 0 205 200" fill="none" xmlns="http://www.w3.org/2000/svg">
<g clip-path="url(#clip0_16_6603)">
<path d="M130.095 44.9795H74.8768C73.6185 44.981 72.4121 45.4815 71.5223 46.3711C70.6326 47.2608 70.132 48.4669 70.1305 49.725V172.429L69.4976 172.622L55.9516 176.769C55.3096 176.965 54.6162 176.898 54.0236 176.583C53.4309 176.268 52.9875 175.731 52.7906 175.089L12.4974 43.4957C12.3013 42.8539 12.3682 42.1604 12.6832 41.5678C12.9983 40.9751 13.5358 40.5318 14.1776 40.3352L35.052 33.9446L95.5677 15.4243L116.442 9.0337C116.76 8.93594 117.093 8.90179 117.424 8.93318C117.755 8.96457 118.077 9.06089 118.37 9.21663C118.664 9.37237 118.924 9.58448 119.135 9.8408C119.347 10.0971 119.506 10.3927 119.603 10.7105L129.902 44.3468L130.095 44.9795Z" fill="#EBEBEB"/>
<path d="M142.145 44.347L129.732 3.80748C129.525 3.13202 129.188 2.50386 128.738 1.95891C128.289 1.41396 127.736 0.962889 127.113 0.63148C126.489 0.30007 125.806 0.0948116 125.103 0.0274413C124.399 -0.039929 123.69 0.031909 123.014 0.238843L93.6661 9.22055L33.1538 27.7439L3.80566 36.7288C2.44231 37.1474 1.30075 38.0897 0.631559 39.3489C-0.0376283 40.6082 -0.179773 42.0814 0.236332 43.4453L42.6622 181.993C43.0002 183.094 43.6822 184.057 44.6082 184.742C45.5342 185.427 46.6554 185.797 47.8073 185.799C48.3404 185.799 48.8705 185.719 49.3798 185.561L69.4979 179.405L70.1307 179.209V178.547L69.4979 178.74L49.1932 184.957C47.9897 185.324 46.69 185.198 45.5789 184.608C44.4679 184.018 43.6363 183.011 43.2666 181.809L0.843991 43.2587C0.660811 42.6629 0.596968 42.0369 0.656116 41.4164C0.715263 40.796 0.896234 40.1933 1.18868 39.6429C1.48112 39.0924 1.87929 38.6051 2.36038 38.2088C2.84146 37.8124 3.39602 37.5148 3.99229 37.3331L33.3404 28.3482L93.8529 9.82798L123.201 0.843113C123.653 0.705113 124.123 0.634749 124.596 0.634309C125.611 0.636587 126.599 0.963698 127.414 1.56773C128.229 2.17176 128.83 3.02097 129.128 3.99098L141.484 44.347L141.68 44.9797H142.338L142.145 44.347Z" fill="#E3B12F"/>
<path d="M38.8189 40.4384C38.2091 40.438 37.6154 40.2422 37.125 39.8797C36.6346 39.5172 36.2733 39.0071 36.0941 38.4242L32.0185 25.114C31.909 24.7565 31.871 24.3809 31.9067 24.0087C31.9424 23.6365 32.051 23.2749 32.2265 22.9447C32.4019 22.6145 32.6407 22.322 32.9292 22.0841C33.2177 21.8462 33.5503 21.6674 33.9079 21.558L89.5788 4.51716C90.301 4.29682 91.0811 4.37197 91.748 4.72611C92.4148 5.08025 92.9139 5.68446 93.1356 6.40611L97.2113 19.7165C97.4315 20.4385 97.3563 21.2185 97.0021 21.8852C96.6479 22.5518 96.0437 23.0508 95.322 23.2727L39.6509 40.3135C39.3814 40.3962 39.1009 40.4383 38.8189 40.4384Z" fill="#E3B12F"/>
<path d="M60.1686 14.2221C63.6637 14.2221 66.4971 11.3893 66.4971 7.89476C66.4971 4.40024 63.6637 1.56738 60.1686 1.56738C56.6735 1.56738 53.8402 4.40024 53.8402 7.89476C53.8402 11.3893 56.6735 14.2221 60.1686 14.2221Z" fill="#E3B12F"/>
<path d="M60.1687 11.9016C62.3819 11.9016 64.1761 10.1077 64.1761 7.89487C64.1761 5.68204 62.3819 3.88818 60.1687 3.88818C57.9555 3.88818 56.1614 5.68204 56.1614 7.89487C56.1614 10.1077 57.9555 11.9016 60.1687 11.9016Z" fill="white"/>
<path d="M190.687 184.181H83.7367C83.0236 184.181 82.34 183.897 81.8358 183.393C81.3316 182.889 81.0479 182.205 81.0471 181.492V53.363C81.0479 52.65 81.3315 51.9665 81.8358 51.4623C82.34 50.9582 83.0236 50.6746 83.7367 50.6738H190.687C191.4 50.6747 192.084 50.9582 192.588 51.4624C193.092 51.9665 193.376 52.65 193.377 53.363V181.492C193.376 182.205 193.092 182.889 192.588 183.393C192.084 183.897 191.4 184.181 190.687 184.181Z" fill="#EBEBEB"/>
<path d="M141.484 44.3467H74.8768C73.4508 44.3487 72.0838 44.916 71.0754 45.9242C70.0671 46.9324 69.4997 48.2992 69.4977 49.7249V178.74L70.1305 178.547V49.7249C70.1321 48.4668 70.6326 47.2607 71.5224 46.371C72.4122 45.4814 73.6185 44.9809 74.8768 44.9794H141.68L141.484 44.3467ZM199.547 44.3467H74.8768C73.4508 44.3487 72.0838 44.916 71.0754 45.9242C70.0671 46.9324 69.4997 48.2992 69.4977 49.7249V194.622C69.4997 196.048 70.0671 197.414 71.0754 198.423C72.0838 199.431 73.4508 199.998 74.8768 200H199.547C200.973 199.998 202.34 199.431 203.348 198.423C204.357 197.414 204.924 196.048 204.926 194.622V49.7249C204.924 48.2992 204.357 46.9324 203.348 45.9242C202.34 44.916 200.973 44.3487 199.547 44.3467ZM204.293 194.622C204.292 195.88 203.791 197.086 202.901 197.976C202.012 198.865 200.805 199.366 199.547 199.367H74.8768C73.6185 199.366 72.4122 198.865 71.5224 197.976C70.6326 197.086 70.1321 195.88 70.1305 194.622V49.7249C70.1321 48.4668 70.6326 47.2607 71.5224 46.371C72.4122 45.4814 73.6185 44.9809 74.8768 44.9794H199.547C200.805 44.9809 202.012 45.4814 202.901 46.371C203.791 47.2607 204.292 48.4668 204.293 49.7249V194.622Z" fill="#E3B12F"/>
<path d="M166.323 58.2667H108.101C107.346 58.2659 106.622 57.9656 106.088 57.4318C105.555 56.898 105.254 56.1743 105.253 55.4194V41.4992C105.254 40.7443 105.555 40.0205 106.088 39.4868C106.622 38.953 107.346 38.6527 108.101 38.6519H166.323C167.078 38.6527 167.802 38.953 168.336 39.4868C168.869 40.0205 169.17 40.7443 169.171 41.4992V55.4194C169.17 56.1743 168.869 56.898 168.336 57.4318C167.802 57.9656 167.078 58.2659 166.323 58.2667Z" fill="#E3B12F"/>
<path d="M137.212 39.601C140.707 39.601 143.54 36.7682 143.54 33.2737C143.54 29.7792 140.707 26.9463 137.212 26.9463C133.717 26.9463 130.884 29.7792 130.884 33.2737C130.884 36.7682 133.717 39.601 137.212 39.601Z" fill="#E3B12F"/>
<path d="M137.212 37.1278C139.341 37.1278 141.066 35.4024 141.066 33.2739C141.066 31.1454 139.341 29.4199 137.212 29.4199C135.083 29.4199 133.357 31.1454 133.357 33.2739C133.357 35.4024 135.083 37.1278 137.212 37.1278Z" fill="white"/>
</g>
<defs>
<clipPath id="clip0_16_6603">
<rect width="204.926" height="200" fill="white"/>
</clipPath>
</defs>
</svg>
