<svg width="160" height="54" viewBox="0 0 160 54" fill="none" xmlns="http://www.w3.org/2000/svg">
<rect width="160" height="54" rx="27" fill="#E3B12F"/>
<path d="M65.2368 29.0239H67.5195C67.4587 29.8319 67.2345 30.5485 66.8472 31.1738C66.4598 31.7936 65.9202 32.2806 65.2285 32.6348C64.5368 32.9889 63.6984 33.166 62.7134 33.166C61.9552 33.166 61.2718 33.0332 60.6631 32.7676C60.0599 32.4964 59.5425 32.1118 59.1108 31.6138C58.6847 31.1102 58.3582 30.507 58.1313 29.8042C57.9045 29.0959 57.791 28.3018 57.791 27.4219V26.5005C57.791 25.6206 57.9072 24.8265 58.1396 24.1182C58.3721 23.4098 58.7041 22.8066 59.1357 22.3086C59.5729 21.805 60.0959 21.4176 60.7046 21.1465C61.3188 20.8753 62.005 20.7397 62.7632 20.7397C63.7482 20.7397 64.5811 20.9224 65.2617 21.2876C65.9424 21.6473 66.4709 22.1426 66.8472 22.7734C67.2235 23.4043 67.4504 24.1292 67.5278 24.9482H65.2451C65.2008 24.4391 65.0902 24.0075 64.9131 23.6533C64.7415 23.2992 64.4814 23.0308 64.1328 22.8481C63.7897 22.66 63.3332 22.5659 62.7632 22.5659C62.3205 22.5659 61.9303 22.6489 61.5928 22.8149C61.2607 22.981 60.984 23.23 60.7627 23.562C60.5413 23.8885 60.3753 24.298 60.2646 24.7905C60.154 25.2775 60.0986 25.842 60.0986 26.4839V27.4219C60.0986 28.0361 60.1484 28.5868 60.248 29.0737C60.3477 29.5607 60.5026 29.973 60.7129 30.3105C60.9232 30.6481 61.1943 30.9054 61.5264 31.0825C61.8584 31.2596 62.2541 31.3481 62.7134 31.3481C63.2723 31.3481 63.7261 31.2596 64.0747 31.0825C64.4289 30.9054 64.6973 30.6453 64.8799 30.3022C65.068 29.9591 65.187 29.533 65.2368 29.0239ZM68.7314 28.6006V28.4263C68.7314 27.7677 68.8255 27.1618 69.0137 26.6084C69.2018 26.0495 69.4757 25.5653 69.8354 25.1558C70.1951 24.7463 70.6351 24.4281 71.1553 24.2012C71.6755 23.9688 72.2676 23.8525 72.9316 23.8525C73.6068 23.8525 74.2044 23.9688 74.7246 24.2012C75.2503 24.4281 75.693 24.7463 76.0527 25.1558C76.4124 25.5653 76.6864 26.0495 76.8745 26.6084C77.0627 27.1618 77.1567 27.7677 77.1567 28.4263V28.6006C77.1567 29.2536 77.0627 29.8595 76.8745 30.4185C76.6864 30.9718 76.4124 31.4561 76.0527 31.8711C75.693 32.2806 75.2531 32.5988 74.7329 32.8257C74.2127 33.0526 73.6178 33.166 72.9482 33.166C72.2842 33.166 71.6893 33.0526 71.1636 32.8257C70.6379 32.5988 70.1951 32.2806 69.8354 31.8711C69.4757 31.4561 69.2018 30.9718 69.0137 30.4185C68.8255 29.8595 68.7314 29.2536 68.7314 28.6006ZM70.9229 28.4263V28.6006C70.9229 28.9935 70.9616 29.3615 71.0391 29.7046C71.1165 30.0477 71.2355 30.3493 71.396 30.6094C71.5565 30.8695 71.764 31.0742 72.0186 31.2236C72.2786 31.3675 72.5885 31.4395 72.9482 31.4395C73.3024 31.4395 73.6068 31.3675 73.8613 31.2236C74.1159 31.0742 74.3234 30.8695 74.4839 30.6094C74.6499 30.3493 74.7716 30.0477 74.8491 29.7046C74.9266 29.3615 74.9653 28.9935 74.9653 28.6006V28.4263C74.9653 28.0389 74.9266 27.6764 74.8491 27.3389C74.7716 26.9958 74.6499 26.6942 74.4839 26.4341C74.3234 26.1685 74.1131 25.9609 73.853 25.8115C73.5985 25.6566 73.2913 25.5791 72.9316 25.5791C72.5775 25.5791 72.2731 25.6566 72.0186 25.8115C71.764 25.9609 71.5565 26.1685 71.396 26.4341C71.2355 26.6942 71.1165 26.9958 71.0391 27.3389C70.9616 27.6764 70.9229 28.0389 70.9229 28.4263ZM80.9419 25.7451V36.4531H78.7422V24.0186H80.7759L80.9419 25.7451ZM86.7109 28.418V28.5923C86.7109 29.2453 86.6335 29.8512 86.4785 30.4102C86.3291 30.9635 86.1077 31.4478 85.8145 31.8628C85.5212 32.2723 85.1559 32.5933 84.7188 32.8257C84.2871 33.0526 83.7891 33.166 83.2246 33.166C82.6712 33.166 82.1898 33.0609 81.7803 32.8506C81.3708 32.6348 81.0249 32.3304 80.7427 31.9375C80.4604 31.5446 80.2336 31.0881 80.062 30.5679C79.896 30.0422 79.7715 29.4694 79.6885 28.8496V28.2935C79.7715 27.6349 79.896 27.0373 80.062 26.5005C80.2336 25.9582 80.4604 25.4906 80.7427 25.0977C81.0249 24.6992 81.368 24.3921 81.772 24.1763C82.1815 23.9604 82.6602 23.8525 83.208 23.8525C83.778 23.8525 84.2788 23.9604 84.7104 24.1763C85.1476 24.3921 85.5156 24.702 85.8145 25.106C86.1133 25.5099 86.3374 25.9914 86.4868 26.5503C86.6362 27.1092 86.7109 27.7318 86.7109 28.418ZM84.5112 28.5923V28.418C84.5112 28.0195 84.4753 27.6515 84.4033 27.314C84.3314 26.9709 84.2207 26.672 84.0713 26.4175C83.9219 26.1574 83.7282 25.9554 83.4902 25.8115C83.2523 25.6676 82.9645 25.5957 82.627 25.5957C82.2894 25.5957 81.9989 25.651 81.7554 25.7617C81.5119 25.8724 81.3127 26.0301 81.1577 26.2349C81.0028 26.4396 80.881 26.6831 80.7925 26.9653C80.7095 27.242 80.6541 27.5492 80.6265 27.8867V29.2646C80.6763 29.6742 80.7731 30.0422 80.917 30.3687C81.0609 30.6951 81.2712 30.9552 81.5479 31.1489C81.8301 31.3426 82.1953 31.4395 82.6436 31.4395C82.9811 31.4395 83.2689 31.3647 83.5068 31.2153C83.7448 31.0659 83.9385 30.8612 84.0879 30.6011C84.2373 30.3354 84.3452 30.0311 84.4116 29.688C84.478 29.3449 84.5112 28.9797 84.5112 28.5923ZM90.8447 32.0039L93.252 24.0186H95.6011L91.9985 34.3613C91.9155 34.5827 91.8076 34.8234 91.6748 35.0835C91.5475 35.3436 91.376 35.5898 91.1602 35.8223C90.9443 36.0602 90.6732 36.2539 90.3467 36.4033C90.0257 36.5527 89.6356 36.6274 89.1763 36.6274C88.9771 36.6274 88.8 36.6136 88.645 36.5859C88.4901 36.5583 88.3268 36.5223 88.1553 36.478V34.8345C88.2106 34.84 88.2743 34.8428 88.3462 34.8428C88.4237 34.8483 88.4901 34.8511 88.5454 34.8511C88.8664 34.8511 89.132 34.8123 89.3423 34.7349C89.5526 34.6629 89.7214 34.5439 89.8486 34.3779C89.9814 34.2174 90.0921 34.0072 90.1807 33.7471L90.8447 32.0039ZM89.6577 24.0186L91.6914 30.6343L92.0483 32.9502L90.5376 33.2241L87.292 24.0186H89.6577ZM108.733 31.207V33H102.657V31.207H108.733ZM103.346 20.9141V33H101.063V20.9141H103.346ZM112.418 24.0186V33H110.219V24.0186H112.418ZM110.069 21.6694C110.069 21.3429 110.18 21.0718 110.401 20.856C110.628 20.6401 110.933 20.5322 111.314 20.5322C111.696 20.5322 111.998 20.6401 112.219 20.856C112.446 21.0718 112.56 21.3429 112.56 21.6694C112.56 21.9904 112.446 22.2588 112.219 22.4746C111.998 22.6904 111.696 22.7983 111.314 22.7983C110.933 22.7983 110.628 22.6904 110.401 22.4746C110.18 22.2588 110.069 21.9904 110.069 21.6694ZM116.66 25.936V33H114.469V24.0186H116.527L116.66 25.936ZM116.312 28.1855H115.664C115.67 27.5326 115.758 26.9404 115.93 26.4092C116.101 25.8779 116.342 25.4214 116.652 25.0396C116.967 24.6577 117.341 24.3644 117.772 24.1597C118.204 23.9549 118.686 23.8525 119.217 23.8525C119.648 23.8525 120.039 23.9134 120.387 24.0352C120.736 24.1569 121.035 24.3506 121.284 24.6162C121.538 24.8818 121.732 25.2305 121.865 25.6621C122.003 26.0882 122.072 26.6139 122.072 27.2393V33H119.864V27.2227C119.864 26.8132 119.803 26.4894 119.682 26.2515C119.565 26.0135 119.394 25.8447 119.167 25.7451C118.946 25.6455 118.672 25.5957 118.345 25.5957C118.008 25.5957 117.712 25.6649 117.457 25.8032C117.208 25.936 116.998 26.1214 116.826 26.3594C116.66 26.5973 116.533 26.8713 116.444 27.1812C116.356 27.491 116.312 27.8258 116.312 28.1855ZM126.198 20.2417V33H124.006V20.2417H126.198ZM131.826 24.0186L127.916 28.4097L125.799 30.5596L125.102 28.8579L126.737 26.7993L129.178 24.0186H131.826ZM129.584 33L126.804 28.8164L128.265 27.397L132.125 33H129.584Z" fill="white"/>
<path d="M44 21V32C44 32.2652 43.8946 32.5196 43.7071 32.7071C43.5196 32.8946 43.2652 33 43 33H33C32.7348 33 32.4804 32.8946 32.2929 32.7071C32.1054 32.5196 32 32.2652 32 32V18C32 17.7348 32.1054 17.4804 32.2929 17.2929C32.4804 17.1054 32.7348 17 33 17H40C40.2648 17.0037 40.5184 17.1073 40.71 17.29L43.71 20.29C43.8027 20.3834 43.876 20.4943 43.9258 20.6161C43.9755 20.7379 44.0008 20.8684 44 21ZM41 36C41 35.7348 40.8946 35.4804 40.7071 35.2929C40.5196 35.1054 40.2652 35 40 35H30V21C30 20.7348 29.8946 20.4804 29.7071 20.2929C29.5196 20.1054 29.2652 20 29 20C28.7348 20 28.4804 20.1054 28.2929 20.2929C28.1054 20.4804 28 20.7348 28 21V35C28 35.5304 28.2107 36.0391 28.5858 36.4142C28.9609 36.7893 29.4696 37 30 37H40C40.2652 37 40.5196 36.8946 40.7071 36.7071C40.8946 36.5196 41 36.2652 41 36Z" fill="white"/>
</svg>
