<svg width="74" height="28" viewBox="0 0 74 28" fill="none" xmlns="http://www.w3.org/2000/svg">
<rect width="74" height="28" rx="5" fill="#E3B12F"/>
<path d="M38.8429 14.9912H40.4298C40.379 15.5964 40.2098 16.1359 39.922 16.6099C39.6342 17.0796 39.2301 17.4499 38.7096 17.7207C38.1891 17.9915 37.5564 18.127 36.8116 18.127C36.2404 18.127 35.7262 18.0254 35.2692 17.8223C34.8121 17.6149 34.4207 17.3229 34.0948 16.9463C33.769 16.5654 33.5193 16.1063 33.3458 15.5688C33.1766 15.0314 33.0919 14.4305 33.0919 13.7661V12.998C33.0919 12.3337 33.1787 11.7327 33.3522 11.1953C33.5299 10.6579 33.7838 10.1987 34.1139 9.81787C34.444 9.43278 34.8396 9.13867 35.3009 8.93555C35.7664 8.73242 36.289 8.63086 36.8688 8.63086C37.6051 8.63086 38.2272 8.76628 38.735 9.03711C39.2428 9.30794 39.6364 9.68245 39.9156 10.1606C40.1992 10.6388 40.3727 11.1868 40.4362 11.8047H38.8492C38.8069 11.4069 38.7138 11.0662 38.5699 10.7827C38.4303 10.4992 38.2229 10.2834 37.9479 10.1353C37.6728 9.98291 37.3131 9.90674 36.8688 9.90674C36.5048 9.90674 36.1875 9.97445 35.9166 10.1099C35.6458 10.2453 35.4194 10.4442 35.2374 10.7065C35.0555 10.9689 34.9179 11.2926 34.8248 11.6777C34.736 12.0586 34.6915 12.4945 34.6915 12.9854V13.7661C34.6915 14.2316 34.7317 14.6548 34.8121 15.0356C34.8968 15.4123 35.0237 15.736 35.193 16.0068C35.3665 16.2777 35.5865 16.4871 35.8531 16.6353C36.1198 16.7834 36.4392 16.8574 36.8116 16.8574C37.2644 16.8574 37.6305 16.7855 37.9098 16.6416C38.1933 16.4977 38.407 16.2882 38.5509 16.0132C38.699 15.7339 38.7963 15.3932 38.8429 14.9912ZM41.6927 14.6421V14.4961C41.6927 14.001 41.7647 13.5418 41.9086 13.1187C42.0524 12.6912 42.2598 12.321 42.5306 12.0078C42.8057 11.6904 43.14 11.445 43.5336 11.2715C43.9313 11.0938 44.3799 11.0049 44.8793 11.0049C45.3828 11.0049 45.8314 11.0938 46.225 11.2715C46.6228 11.445 46.9592 11.6904 47.2342 12.0078C47.5093 12.321 47.7188 12.6912 47.8627 13.1187C48.0065 13.5418 48.0785 14.001 48.0785 14.4961V14.6421C48.0785 15.1372 48.0065 15.5964 47.8627 16.0195C47.7188 16.4427 47.5093 16.813 47.2342 17.1304C46.9592 17.4435 46.6249 17.689 46.2313 17.8667C45.8378 18.0402 45.3913 18.127 44.892 18.127C44.3884 18.127 43.9377 18.0402 43.5399 17.8667C43.1464 17.689 42.812 17.4435 42.537 17.1304C42.2619 16.813 42.0524 16.4427 41.9086 16.0195C41.7647 15.5964 41.6927 15.1372 41.6927 14.6421ZM43.2225 14.4961V14.6421C43.2225 14.951 43.2543 15.243 43.3177 15.5181C43.3812 15.7931 43.4807 16.0343 43.6161 16.2417C43.7515 16.4491 43.925 16.612 44.1366 16.7305C44.3482 16.849 44.6 16.9082 44.892 16.9082C45.1755 16.9082 45.4209 16.849 45.6283 16.7305C45.8399 16.612 46.0134 16.4491 46.1488 16.2417C46.2842 16.0343 46.3837 15.7931 46.4471 15.5181C46.5148 15.243 46.5487 14.951 46.5487 14.6421V14.4961C46.5487 14.1914 46.5148 13.9036 46.4471 13.6328C46.3837 13.3577 46.2821 13.1144 46.1424 12.9028C46.007 12.6912 45.8335 12.5262 45.6219 12.4077C45.4146 12.285 45.167 12.2236 44.8793 12.2236C44.5915 12.2236 44.3418 12.285 44.1302 12.4077C43.9229 12.5262 43.7515 12.6912 43.6161 12.9028C43.4807 13.1144 43.3812 13.3577 43.3177 13.6328C43.2543 13.9036 43.2225 14.1914 43.2225 14.4961ZM51.1568 12.4521V20.6406H49.6271V11.1318H51.0362L51.1568 12.4521ZM55.6319 14.5024V14.6357C55.6319 15.1351 55.5727 15.5985 55.4542 16.0259C55.3399 16.4491 55.1686 16.8193 54.94 17.1367C54.7158 17.4499 54.4386 17.6932 54.1085 17.8667C53.7784 18.0402 53.3976 18.127 52.9659 18.127C52.5385 18.127 52.164 18.0487 51.8424 17.8921C51.525 17.7313 51.2563 17.5049 51.0362 17.2129C50.8162 16.9209 50.6384 16.5781 50.503 16.1846C50.3718 15.7868 50.2787 15.3509 50.2237 14.877V14.3628C50.2787 13.8592 50.3718 13.4022 50.503 12.9917C50.6384 12.5812 50.8162 12.2279 51.0362 11.9316C51.2563 11.6354 51.525 11.4069 51.8424 11.2461C52.1598 11.0853 52.5301 11.0049 52.9532 11.0049C53.3849 11.0049 53.7678 11.0895 54.1022 11.2588C54.4365 11.4238 54.7179 11.6608 54.9464 11.9697C55.1749 12.2744 55.3463 12.6426 55.4606 13.0742C55.5748 13.5016 55.6319 13.9777 55.6319 14.5024ZM54.1022 14.6357V14.5024C54.1022 14.1851 54.0725 13.891 54.0133 13.6201C53.954 13.3451 53.8609 13.1038 53.734 12.8965C53.607 12.6891 53.4441 12.5283 53.2452 12.4141C53.0506 12.2956 52.8157 12.2363 52.5406 12.2363C52.2698 12.2363 52.037 12.2829 51.8424 12.376C51.6477 12.4648 51.4848 12.5897 51.3536 12.7505C51.2224 12.9113 51.1209 13.0996 51.0489 13.3154C50.977 13.527 50.9262 13.7576 50.8966 14.0073V15.2388C50.9474 15.5435 51.0341 15.8228 51.1568 16.0767C51.2796 16.3306 51.4531 16.5337 51.6773 16.686C51.9059 16.8341 52.1979 16.9082 52.5533 16.9082C52.8284 16.9082 53.0633 16.849 53.2579 16.7305C53.4526 16.612 53.6113 16.4491 53.734 16.2417C53.8609 16.0301 53.954 15.7868 54.0133 15.5117C54.0725 15.2367 54.1022 14.9447 54.1022 14.6357ZM59.1102 17.251L60.9764 11.1318H62.6141L59.8592 19.0474C59.7957 19.2166 59.7132 19.4007 59.6117 19.5996C59.5101 19.7985 59.3768 19.9868 59.2118 20.1646C59.051 20.3465 58.8499 20.4925 58.6087 20.6025C58.3675 20.7168 58.0755 20.7739 57.7328 20.7739C57.5973 20.7739 57.4662 20.7612 57.3392 20.7358C57.2165 20.7147 57.1001 20.6914 56.9901 20.666L56.9837 19.498C57.0261 19.5023 57.0768 19.5065 57.1361 19.5107C57.1996 19.515 57.2503 19.5171 57.2884 19.5171C57.5423 19.5171 57.7539 19.4854 57.9232 19.4219C58.0925 19.3626 58.23 19.2653 58.3358 19.1299C58.4458 18.9945 58.5389 18.8125 58.6151 18.584L59.1102 17.251ZM58.0565 11.1318L59.6878 16.2734L59.9608 17.8857L58.9007 18.1587L56.4061 11.1318H58.0565Z" fill="white"/>
<path d="M20.3333 17.8891V20.2224C20.3333 20.4287 20.2514 20.6266 20.1055 20.7724C19.9597 20.9183 19.7618 21.0002 19.5556 21.0002H11.7778C11.5715 21.0002 11.3737 20.9183 11.2278 20.7724C11.0819 20.6266 11 20.4287 11 20.2224V10.8891C11 10.6828 11.0819 10.485 11.2278 10.3391C11.3737 10.1933 11.5715 10.1113 11.7778 10.1113H14.1111" stroke="white" stroke-width="1.5" stroke-linecap="round" stroke-linejoin="round"/>
<path d="M22.6666 7H14.8889C14.4593 7 14.1111 7.34822 14.1111 7.77778V17.1111C14.1111 17.5407 14.4593 17.8889 14.8889 17.8889H22.6666C23.0962 17.8889 23.4444 17.5407 23.4444 17.1111V7.77778C23.4444 7.34822 23.0962 7 22.6666 7Z" stroke="white" stroke-width="1.5" stroke-linecap="round" stroke-linejoin="round"/>
</svg>
