<svg width="160" height="50" viewBox="0 0 160 50" fill="none" xmlns="http://www.w3.org/2000/svg">
<rect width="160" height="50" rx="25" fill="#E3B12F"/>
<path d="M29.355 27.0239H31.6377C31.5768 27.8319 31.3527 28.5485 30.9653 29.1738C30.578 29.7936 30.0384 30.2806 29.3467 30.6348C28.6549 30.9889 27.8166 31.166 26.8315 31.166C26.0734 31.166 25.39 31.0332 24.7812 30.7676C24.1781 30.4964 23.6606 30.1118 23.229 29.6138C22.8029 29.1102 22.4764 28.507 22.2495 27.8042C22.0226 27.0959 21.9092 26.3018 21.9092 25.4219V24.5005C21.9092 23.6206 22.0254 22.8265 22.2578 22.1182C22.4902 21.4098 22.8223 20.8066 23.2539 20.3086C23.6911 19.805 24.214 19.4176 24.8228 19.1465C25.437 18.8753 26.1232 18.7397 26.8813 18.7397C27.8664 18.7397 28.6992 18.9224 29.3799 19.2876C30.0605 19.6473 30.589 20.1426 30.9653 20.7734C31.3416 21.4043 31.5685 22.1292 31.646 22.9482H29.3633C29.319 22.4391 29.2083 22.0075 29.0312 21.6533C28.8597 21.2992 28.5996 21.0308 28.251 20.8481C27.9079 20.66 27.4513 20.5659 26.8813 20.5659C26.4386 20.5659 26.0485 20.6489 25.7109 20.8149C25.3789 20.981 25.1022 21.23 24.8809 21.562C24.6595 21.8885 24.4935 22.298 24.3828 22.7905C24.2721 23.2775 24.2168 23.842 24.2168 24.4839V25.4219C24.2168 26.0361 24.2666 26.5868 24.3662 27.0737C24.4658 27.5607 24.6208 27.973 24.8311 28.3105C25.0413 28.6481 25.3125 28.9054 25.6445 29.0825C25.9766 29.2596 26.3722 29.3481 26.8315 29.3481C27.3905 29.3481 27.8442 29.2596 28.1929 29.0825C28.547 28.9054 28.8154 28.6453 28.998 28.3022C29.1862 27.9591 29.3052 27.533 29.355 27.0239ZM35.4312 23.853V31H33.2397V22.0186H35.3149L35.4312 23.853ZM38.1621 21.9604L38.1289 24.0024C38.0072 23.9803 37.8688 23.9637 37.7139 23.9526C37.5645 23.9416 37.4233 23.936 37.2905 23.936C36.953 23.936 36.6569 23.9831 36.4023 24.0771C36.1478 24.1657 35.9347 24.2957 35.7632 24.4673C35.5972 24.6388 35.4699 24.8491 35.3813 25.0981C35.2928 25.3416 35.243 25.6183 35.2319 25.9282L34.7588 25.8701C34.7588 25.3001 34.8169 24.7716 34.9331 24.2847C35.0493 23.7977 35.2181 23.3716 35.4395 23.0063C35.6608 22.6411 35.9375 22.3589 36.2695 22.1597C36.6071 21.9549 36.9945 21.8525 37.4316 21.8525C37.5534 21.8525 37.6834 21.8636 37.8218 21.8857C37.9657 21.9023 38.0791 21.9272 38.1621 21.9604ZM43.2339 31.166C42.5532 31.166 41.9417 31.0553 41.3994 30.834C40.8571 30.6126 40.395 30.3055 40.0132 29.9126C39.6369 29.5142 39.3464 29.0521 39.1416 28.5264C38.9424 27.9951 38.8428 27.4251 38.8428 26.8164V26.4844C38.8428 25.7926 38.9424 25.1646 39.1416 24.6001C39.3408 24.0301 39.623 23.5404 39.9883 23.1309C40.3535 22.7214 40.7907 22.4059 41.2998 22.1846C41.8089 21.9632 42.3706 21.8525 42.9849 21.8525C43.6213 21.8525 44.1829 21.9604 44.6699 22.1763C45.1569 22.3866 45.5636 22.6854 45.8901 23.0728C46.2166 23.4601 46.4629 23.925 46.6289 24.4673C46.7949 25.0041 46.8779 25.599 46.8779 26.252V27.1733H39.8389V25.6626H44.7197V25.4966C44.7087 25.1479 44.6423 24.8298 44.5205 24.542C44.3988 24.2487 44.2106 24.0163 43.9561 23.8447C43.7015 23.6676 43.3722 23.5791 42.9683 23.5791C42.6418 23.5791 42.3568 23.651 42.1133 23.7949C41.8753 23.9333 41.6761 24.1325 41.5156 24.3926C41.3607 24.6471 41.2445 24.9515 41.167 25.3057C41.0895 25.6598 41.0508 26.0527 41.0508 26.4844V26.8164C41.0508 27.1927 41.1006 27.5413 41.2002 27.8623C41.3053 28.1833 41.4575 28.4627 41.6567 28.7007C41.8615 28.9331 42.105 29.1157 42.3872 29.2485C42.675 29.3758 43.0015 29.4395 43.3667 29.4395C43.826 29.4395 44.241 29.3509 44.6118 29.1738C44.9881 28.9912 45.3146 28.7228 45.5913 28.3687L46.6953 29.5142C46.5072 29.7909 46.2526 30.0565 45.9316 30.311C45.6162 30.5656 45.2344 30.7731 44.7861 30.9336C44.3379 31.0885 43.8205 31.166 43.2339 31.166ZM53.2944 29.0908V24.9487C53.2944 24.6444 53.2419 24.3815 53.1367 24.1602C53.0316 23.9388 52.8711 23.7673 52.6553 23.6455C52.4395 23.5238 52.1655 23.4629 51.8335 23.4629C51.5402 23.4629 51.2829 23.5127 51.0615 23.6123C50.8457 23.7119 50.6797 23.853 50.5635 24.0356C50.4473 24.2127 50.3892 24.4175 50.3892 24.6499H48.1895C48.1895 24.2791 48.278 23.9277 48.4551 23.5957C48.6322 23.2581 48.884 22.9593 49.2104 22.6992C49.5425 22.4336 49.9382 22.2261 50.3975 22.0767C50.8623 21.9272 51.3825 21.8525 51.958 21.8525C52.6387 21.8525 53.2446 21.9688 53.7759 22.2012C54.3127 22.4281 54.7332 22.7712 55.0376 23.2305C55.3475 23.6898 55.5024 24.2681 55.5024 24.9653V28.8833C55.5024 29.3315 55.5301 29.7161 55.5854 30.0371C55.6463 30.3525 55.7349 30.6265 55.8511 30.8589V31H53.6182C53.513 30.7731 53.4328 30.4854 53.3774 30.1367C53.3221 29.7826 53.2944 29.4339 53.2944 29.0908ZM53.6016 25.5298L53.6182 26.833H52.2319C51.8888 26.833 51.5872 26.869 51.3271 26.9409C51.0671 27.0073 50.854 27.1069 50.688 27.2397C50.522 27.367 50.3975 27.522 50.3145 27.7046C50.2314 27.8817 50.1899 28.0837 50.1899 28.3105C50.1899 28.5319 50.2397 28.7311 50.3394 28.9082C50.4445 29.0853 50.5939 29.2264 50.7876 29.3315C50.9868 29.4312 51.2192 29.481 51.4849 29.481C51.8722 29.481 52.2098 29.4035 52.4976 29.2485C52.7853 29.0881 53.0094 28.8944 53.1699 28.6675C53.3304 28.4406 53.4162 28.2248 53.4272 28.02L54.0581 28.9663C53.9806 29.1932 53.8644 29.4339 53.7095 29.6885C53.5545 29.943 53.3553 30.181 53.1118 30.4023C52.8683 30.6237 52.575 30.8063 52.2319 30.9502C51.8888 31.0941 51.4904 31.166 51.0366 31.166C50.4556 31.166 49.9354 31.0498 49.4761 30.8174C49.0168 30.585 48.6543 30.2668 48.3887 29.8628C48.123 29.4588 47.9902 28.9995 47.9902 28.4849C47.9902 28.009 48.0788 27.5884 48.2559 27.2231C48.4329 26.8579 48.6958 26.5508 49.0444 26.3018C49.3931 26.0472 49.8247 25.8563 50.3394 25.729C50.8595 25.5962 51.4544 25.5298 52.124 25.5298H53.6016ZM61.728 22.0186V23.5957H56.5815V22.0186H61.728ZM57.9595 19.8105H60.1592V28.4102C60.1592 28.6758 60.1951 28.8805 60.2671 29.0244C60.339 29.1683 60.4469 29.2651 60.5908 29.3149C60.7347 29.3647 60.9062 29.3896 61.1055 29.3896C61.2493 29.3896 61.3822 29.3813 61.5039 29.3647C61.6257 29.3481 61.728 29.3315 61.811 29.3149L61.8193 30.9585C61.6367 31.0194 61.4292 31.0692 61.1968 31.1079C60.9699 31.1466 60.7126 31.166 60.4248 31.166C59.9323 31.166 59.5007 31.083 59.1299 30.917C58.7591 30.7454 58.4714 30.4715 58.2666 30.0952C58.0618 29.7134 57.9595 29.2098 57.9595 28.5845V19.8105ZM67.2231 31.166C66.5425 31.166 65.931 31.0553 65.3887 30.834C64.8464 30.6126 64.3843 30.3055 64.0024 29.9126C63.6261 29.5142 63.3356 29.0521 63.1309 28.5264C62.9316 27.9951 62.832 27.4251 62.832 26.8164V26.4844C62.832 25.7926 62.9316 25.1646 63.1309 24.6001C63.3301 24.0301 63.6123 23.5404 63.9775 23.1309C64.3428 22.7214 64.7799 22.4059 65.2891 22.1846C65.7982 21.9632 66.3599 21.8525 66.9741 21.8525C67.6105 21.8525 68.1722 21.9604 68.6592 22.1763C69.1462 22.3866 69.5529 22.6854 69.8794 23.0728C70.2059 23.4601 70.4521 23.925 70.6182 24.4673C70.7842 25.0041 70.8672 25.599 70.8672 26.252V27.1733H63.8281V25.6626H68.709V25.4966C68.6979 25.1479 68.6315 24.8298 68.5098 24.542C68.388 24.2487 68.1999 24.0163 67.9453 23.8447C67.6908 23.6676 67.3615 23.5791 66.9575 23.5791C66.631 23.5791 66.346 23.651 66.1025 23.7949C65.8646 23.9333 65.6654 24.1325 65.5049 24.3926C65.3499 24.6471 65.2337 24.9515 65.1562 25.3057C65.0788 25.6598 65.04 26.0527 65.04 26.4844V26.8164C65.04 27.1927 65.0898 27.5413 65.1895 27.8623C65.2946 28.1833 65.4468 28.4627 65.646 28.7007C65.8507 28.9331 66.0942 29.1157 66.3765 29.2485C66.6642 29.3758 66.9907 29.4395 67.356 29.4395C67.8153 29.4395 68.2303 29.3509 68.6011 29.1738C68.9774 28.9912 69.3039 28.7228 69.5806 28.3687L70.6846 29.5142C70.4964 29.7909 70.2419 30.0565 69.9209 30.311C69.6055 30.5656 69.2236 30.7731 68.7754 30.9336C68.3271 31.0885 67.8097 31.166 67.2231 31.166ZM81.542 20.7485L78.0972 31H75.6816L80.1973 18.9141H81.7412L81.542 20.7485ZM84.4224 31L80.9609 20.7485L80.7534 18.9141H82.3057L86.8462 31H84.4224ZM84.2646 26.5093V28.3105H77.7817V26.5093H84.2646ZM91.6108 29.4395C91.9207 29.4395 92.1974 29.3786 92.4409 29.2568C92.6844 29.1351 92.8781 28.9635 93.022 28.7422C93.1714 28.5208 93.2516 28.2635 93.2627 27.9702H95.3296C95.3185 28.5789 95.147 29.124 94.8149 29.6055C94.4829 30.0869 94.0402 30.4688 93.4868 30.751C92.939 31.0277 92.3247 31.166 91.644 31.166C90.9523 31.166 90.3491 31.0498 89.8345 30.8174C89.3198 30.585 88.891 30.2612 88.5479 29.8462C88.2103 29.4312 87.9557 28.9497 87.7842 28.4019C87.6182 27.854 87.5352 27.2674 87.5352 26.6421V26.3765C87.5352 25.7511 87.6182 25.1646 87.7842 24.6167C87.9557 24.0688 88.2103 23.5874 88.5479 23.1724C88.891 22.7573 89.3198 22.4336 89.8345 22.2012C90.3491 21.9688 90.9495 21.8525 91.6357 21.8525C92.3607 21.8525 92.9971 21.9937 93.5449 22.2759C94.0983 22.5581 94.5299 22.9565 94.8398 23.4712C95.1553 23.9858 95.3185 24.5918 95.3296 25.2891H93.2627C93.2516 24.9681 93.1797 24.6803 93.0469 24.4258C92.9141 24.1712 92.7259 23.9665 92.4824 23.8115C92.2389 23.6566 91.9429 23.5791 91.5942 23.5791C91.2235 23.5791 90.9136 23.6566 90.6646 23.8115C90.4211 23.9665 90.2301 24.1795 90.0918 24.4507C89.959 24.7163 89.8649 25.0151 89.8096 25.3472C89.7598 25.6737 89.7349 26.0168 89.7349 26.3765V26.6421C89.7349 27.0073 89.7598 27.356 89.8096 27.688C89.8649 28.02 89.959 28.3188 90.0918 28.5845C90.2301 28.8446 90.4211 29.0521 90.6646 29.207C90.9136 29.362 91.229 29.4395 91.6108 29.4395ZM100.476 29.4395C100.786 29.4395 101.063 29.3786 101.306 29.2568C101.55 29.1351 101.743 28.9635 101.887 28.7422C102.037 28.5208 102.117 28.2635 102.128 27.9702H104.195C104.184 28.5789 104.012 29.124 103.68 29.6055C103.348 30.0869 102.905 30.4688 102.352 30.751C101.804 31.0277 101.19 31.166 100.509 31.166C99.8175 31.166 99.2144 31.0498 98.6997 30.8174C98.1851 30.585 97.7562 30.2612 97.4131 29.8462C97.0755 29.4312 96.821 28.9497 96.6494 28.4019C96.4834 27.854 96.4004 27.2674 96.4004 26.6421V26.3765C96.4004 25.7511 96.4834 25.1646 96.6494 24.6167C96.821 24.0688 97.0755 23.5874 97.4131 23.1724C97.7562 22.7573 98.1851 22.4336 98.6997 22.2012C99.2144 21.9688 99.8148 21.8525 100.501 21.8525C101.226 21.8525 101.862 21.9937 102.41 22.2759C102.964 22.5581 103.395 22.9565 103.705 23.4712C104.021 23.9858 104.184 24.5918 104.195 25.2891H102.128C102.117 24.9681 102.045 24.6803 101.912 24.4258C101.779 24.1712 101.591 23.9665 101.348 23.8115C101.104 23.6566 100.808 23.5791 100.459 23.5791C100.089 23.5791 99.7788 23.6566 99.5298 23.8115C99.2863 23.9665 99.0954 24.1795 98.957 24.4507C98.8242 24.7163 98.7301 25.0151 98.6748 25.3472C98.625 25.6737 98.6001 26.0168 98.6001 26.3765V26.6421C98.6001 27.0073 98.625 27.356 98.6748 27.688C98.7301 28.02 98.8242 28.3188 98.957 28.5845C99.0954 28.8446 99.2863 29.0521 99.5298 29.207C99.7788 29.362 100.094 29.4395 100.476 29.4395ZM105.266 26.6006V26.4263C105.266 25.7677 105.36 25.1618 105.548 24.6084C105.736 24.0495 106.01 23.5653 106.37 23.1558C106.729 22.7463 107.169 22.4281 107.689 22.2012C108.21 21.9688 108.802 21.8525 109.466 21.8525C110.141 21.8525 110.739 21.9688 111.259 22.2012C111.785 22.4281 112.227 22.7463 112.587 23.1558C112.947 23.5653 113.221 24.0495 113.409 24.6084C113.597 25.1618 113.691 25.7677 113.691 26.4263V26.6006C113.691 27.2536 113.597 27.8595 113.409 28.4185C113.221 28.9718 112.947 29.4561 112.587 29.8711C112.227 30.2806 111.787 30.5988 111.267 30.8257C110.747 31.0526 110.152 31.166 109.482 31.166C108.818 31.166 108.223 31.0526 107.698 30.8257C107.172 30.5988 106.729 30.2806 106.37 29.8711C106.01 29.4561 105.736 28.9718 105.548 28.4185C105.36 27.8595 105.266 27.2536 105.266 26.6006ZM107.457 26.4263V26.6006C107.457 26.9935 107.496 27.3615 107.573 27.7046C107.651 28.0477 107.77 28.3493 107.93 28.6094C108.091 28.8695 108.298 29.0742 108.553 29.2236C108.813 29.3675 109.123 29.4395 109.482 29.4395C109.837 29.4395 110.141 29.3675 110.396 29.2236C110.65 29.0742 110.858 28.8695 111.018 28.6094C111.184 28.3493 111.306 28.0477 111.383 27.7046C111.461 27.3615 111.5 26.9935 111.5 26.6006V26.4263C111.5 26.0389 111.461 25.6764 111.383 25.3389C111.306 24.9958 111.184 24.6942 111.018 24.4341C110.858 24.1685 110.647 23.9609 110.387 23.8115C110.133 23.6566 109.826 23.5791 109.466 23.5791C109.112 23.5791 108.807 23.6566 108.553 23.8115C108.298 23.9609 108.091 24.1685 107.93 24.4341C107.77 24.6942 107.651 24.9958 107.573 25.3389C107.496 25.6764 107.457 26.0389 107.457 26.4263ZM120.63 28.8667V22.0186H122.838V31H120.763L120.63 28.8667ZM120.913 27.0073L121.593 26.9907C121.593 27.5939 121.527 28.1501 121.394 28.6592C121.261 29.1683 121.054 29.611 120.771 29.9873C120.495 30.3581 120.143 30.6486 119.717 30.8589C119.291 31.0636 118.788 31.166 118.207 31.166C117.764 31.166 117.36 31.1051 116.995 30.9834C116.629 30.8561 116.314 30.6597 116.048 30.394C115.788 30.1229 115.586 29.777 115.442 29.3564C115.299 28.9303 115.227 28.4185 115.227 27.8208V22.0186H117.418V27.8374C117.418 28.1362 117.451 28.3853 117.518 28.5845C117.59 28.7837 117.686 28.9469 117.808 29.0742C117.935 29.196 118.082 29.2845 118.248 29.3398C118.42 29.3896 118.602 29.4146 118.796 29.4146C119.327 29.4146 119.745 29.3094 120.049 29.0991C120.359 28.8833 120.581 28.5955 120.713 28.2358C120.846 27.8706 120.913 27.4611 120.913 27.0073ZM126.931 23.936V31H124.739V22.0186H126.798L126.931 23.936ZM126.582 26.1855H125.935C125.94 25.5326 126.029 24.9404 126.2 24.4092C126.372 23.8779 126.612 23.4214 126.922 23.0396C127.238 22.6577 127.611 22.3644 128.043 22.1597C128.475 21.9549 128.956 21.8525 129.487 21.8525C129.919 21.8525 130.309 21.9134 130.658 22.0352C131.006 22.1569 131.305 22.3506 131.554 22.6162C131.809 22.8818 132.002 23.2305 132.135 23.6621C132.274 24.0882 132.343 24.6139 132.343 25.2393V31H130.135V25.2227C130.135 24.8132 130.074 24.4894 129.952 24.2515C129.836 24.0135 129.664 23.8447 129.438 23.7451C129.216 23.6455 128.942 23.5957 128.616 23.5957C128.278 23.5957 127.982 23.6649 127.728 23.8032C127.479 23.936 127.268 24.1214 127.097 24.3594C126.931 24.5973 126.803 24.8713 126.715 25.1812C126.626 25.491 126.582 25.8258 126.582 26.1855ZM138.527 22.0186V23.5957H133.38V22.0186H138.527ZM134.758 19.8105H136.958V28.4102C136.958 28.6758 136.994 28.8805 137.066 29.0244C137.138 29.1683 137.246 29.2651 137.39 29.3149C137.534 29.3647 137.705 29.3896 137.904 29.3896C138.048 29.3896 138.181 29.3813 138.303 29.3647C138.424 29.3481 138.527 29.3315 138.61 29.3149L138.618 30.9585C138.436 31.0194 138.228 31.0692 137.996 31.1079C137.769 31.1466 137.511 31.166 137.224 31.166C136.731 31.166 136.299 31.083 135.929 30.917C135.558 30.7454 135.27 30.4715 135.065 30.0952C134.861 29.7134 134.758 29.2098 134.758 28.5845V19.8105Z" fill="white"/>
</svg>
