<svg width="46" height="46" viewBox="0 0 46 46" fill="none" xmlns="http://www.w3.org/2000/svg">
<circle cx="23" cy="23" r="23" fill="#E3B12F" fill-opacity="0.2"/>
<path d="M32.7737 20.4912C32.7737 29.4747 22.8896 33.67 22.8896 33.67C22.8896 33.67 13.0055 29.5187 13.0055 20.4912C12.9424 19.1101 13.4256 17.7597 14.3504 16.7321C15.2753 15.7045 16.5675 15.0823 17.9475 15C19.3276 15.0823 20.6198 15.7045 21.5447 16.7321C22.4695 17.7597 22.9527 19.1101 22.8896 20.4912C22.8265 19.1101 23.3097 17.7597 24.2345 16.7321C25.1594 15.7045 26.4516 15.0823 27.8317 15C29.2117 15.0823 30.5039 15.7045 31.4288 16.7321C32.3536 17.7597 32.8368 19.1101 32.7737 20.4912Z" fill="#E3B12F" stroke="#E3B12F" stroke-width="2" stroke-linecap="round" stroke-linejoin="round"/>
</svg>
