<svg width="46" height="46" viewBox="0 0 46 46" fill="none" xmlns="http://www.w3.org/2000/svg">
<circle cx="23" cy="23" r="23" fill="#E3B12F" fill-opacity="0.2"/>
<path d="M29 19H28V17C28 14.24 25.76 12 23 12C20.24 12 18 14.24 18 17V19H17C15.9 19 15 19.9 15 21V31C15 32.1 15.9 33 17 33H29C30.1 33 31 32.1 31 31V21C31 19.9 30.1 19 29 19ZM23 28C21.9 28 21 27.1 21 26C21 24.9 21.9 24 23 24C24.1 24 25 24.9 25 26C25 27.1 24.1 28 23 28ZM26.1 19H19.9V17C19.9 15.29 21.29 13.9 23 13.9C24.71 13.9 26.1 15.29 26.1 17V19Z" fill="#E3B12F"/>
</svg>
