<svg width="51" height="24" viewBox="0 0 51 24" fill="none" xmlns="http://www.w3.org/2000/svg">
<rect width="51" height="24" rx="5" fill="#E3B12F"/>
<path d="M20.271 7.75781V17H18.6777L14.5327 10.3794V17H12.9395V7.75781H14.5327L18.6904 14.3911V7.75781H20.271ZM25.3044 17.127C24.7966 17.127 24.3375 17.0444 23.927 16.8794C23.5207 16.7101 23.1737 16.4753 22.886 16.1748C22.6024 15.8743 22.3845 15.521 22.2322 15.1147C22.0798 14.7085 22.0037 14.2705 22.0037 13.8008V13.5469C22.0037 13.0094 22.0819 12.5228 22.2385 12.0869C22.3951 11.651 22.613 11.2786 22.8923 10.9697C23.1716 10.6566 23.5017 10.4175 23.8826 10.2524C24.2634 10.0874 24.676 10.0049 25.1204 10.0049C25.6112 10.0049 26.0408 10.0874 26.4089 10.2524C26.7771 10.4175 27.0818 10.6502 27.323 10.9507C27.5684 11.2469 27.7504 11.6003 27.8689 12.0107C27.9916 12.4212 28.053 12.874 28.053 13.3691V14.0229H22.7463V12.9248H26.5422V12.8042C26.5338 12.5291 26.4788 12.271 26.3772 12.0298C26.2799 11.7886 26.1296 11.5939 25.9265 11.4458C25.7234 11.2977 25.4525 11.2236 25.114 11.2236C24.8601 11.2236 24.6337 11.2786 24.4348 11.3887C24.2401 11.4945 24.0772 11.6489 23.946 11.8521C23.8149 12.0552 23.7133 12.3006 23.6413 12.5884C23.5736 12.8719 23.5398 13.1914 23.5398 13.5469V13.8008C23.5398 14.1012 23.58 14.3805 23.6604 14.6387C23.745 14.8926 23.8677 15.1147 24.0286 15.3052C24.1894 15.4956 24.384 15.6458 24.6125 15.7559C24.8411 15.8617 25.1013 15.9146 25.3933 15.9146C25.7615 15.9146 26.0894 15.8405 26.3772 15.6924C26.6649 15.5443 26.9146 15.3348 27.1262 15.064L27.9324 15.8447C27.7843 16.0605 27.5917 16.2679 27.3547 16.4668C27.1177 16.6615 26.8279 16.8201 26.4851 16.9429C26.1466 17.0656 25.753 17.127 25.3044 17.127ZM31.3725 15.4766L32.9595 10.1318H33.937L33.6704 11.7314L32.0708 17H31.1948L31.3725 15.4766ZM30.4394 10.1318L31.6772 15.502L31.7788 17H30.8013L28.9414 10.1318H30.4394ZM35.4223 15.4385L36.6221 10.1318H38.1138L36.2602 17H35.2827L35.4223 15.4385ZM34.102 10.1318L35.6699 15.4131L35.8667 17H34.9907L33.3721 11.7251L33.1054 10.1318H34.102Z" fill="white"/>
</svg>
