<svg width="29" height="29" viewBox="0 0 29 29" fill="none" xmlns="http://www.w3.org/2000/svg">
<path d="M23.4175 17.3758C23.6553 17.6139 23.8439 17.8966 23.9725 18.2075C24.101 18.5185 24.167 18.8518 24.1667 19.1883C24.1667 19.8677 23.8968 20.5193 23.4164 20.9997C22.936 21.4801 22.2844 21.75 21.605 21.75H7.39504C6.71565 21.75 6.06408 21.4801 5.58367 20.9997C5.10326 20.5193 4.83338 19.8677 4.83338 19.1883C4.83308 18.8518 4.89909 18.5185 5.02763 18.2075C5.15618 17.8966 5.34474 17.6139 5.58254 17.3758L7.25004 15.7083V10.875C7.25004 8.95218 8.01388 7.10811 9.37352 5.74848C10.7332 4.38884 12.5772 3.625 14.5 3.625C16.4229 3.625 18.2669 4.38884 19.6266 5.74848C20.9862 7.10811 21.75 8.95218 21.75 10.875V15.7083L23.4175 17.3758ZM18.125 21.75H10.875C10.875 22.7114 11.257 23.6334 11.9368 24.3133C12.6166 24.9931 13.5386 25.375 14.5 25.375C15.4615 25.375 16.3835 24.9931 17.0633 24.3133C17.7431 23.6334 18.125 22.7114 18.125 21.75Z" stroke="white" stroke-width="1.8" stroke-linecap="round" stroke-linejoin="round"/>
</svg>
