<svg width="24" height="24" viewBox="0 0 24 24" fill="none" xmlns="http://www.w3.org/2000/svg">
<path d="M22.1667 22.1667L16.125 16.125M18.5417 10.0833C18.5417 11.7562 18.0456 13.3916 17.1162 14.7825C16.1868 16.1735 14.8658 17.2576 13.3202 17.8978C11.7746 18.538 10.074 18.7055 8.4332 18.3791C6.79244 18.0528 5.28531 17.2472 4.10239 16.0643C2.91947 14.8814 2.11389 13.3742 1.78753 11.7335C1.46116 10.0927 1.62866 8.39203 2.26886 6.84647C2.90905 5.30091 3.99317 3.9799 5.38414 3.05049C6.7751 2.12107 8.41044 1.625 10.0833 1.625C12.3266 1.625 14.478 2.51614 16.0643 4.10239C17.6505 5.68863 18.5417 7.84004 18.5417 10.0833Z" stroke="white" stroke-width="1.8" stroke-linecap="round" stroke-linejoin="round"/>
</svg>
