<svg width="71" height="26" viewBox="0 0 71 26" fill="none" xmlns="http://www.w3.org/2000/svg">
<rect x="0.5" y="0.5" width="70" height="25" rx="4.5" fill="white" stroke="#FF4921"/>
<path d="M38.9985 15.6641C38.9985 15.4482 38.9647 15.2578 38.897 15.0928C38.8335 14.9235 38.7192 14.7712 38.5542 14.6357C38.3934 14.5003 38.1691 14.3713 37.8813 14.2485C37.5978 14.1258 37.2381 14.001 36.8022 13.874C36.3452 13.7386 35.9326 13.5884 35.5645 13.4233C35.1963 13.2541 34.881 13.0615 34.6187 12.8457C34.3563 12.6299 34.1553 12.3823 34.0156 12.103C33.876 11.8237 33.8062 11.5042 33.8062 11.1445C33.8062 10.7848 33.8802 10.4526 34.0283 10.1479C34.1764 9.84326 34.388 9.57878 34.6631 9.35449C34.9424 9.12598 35.2746 8.94824 35.6597 8.82129C36.0448 8.69434 36.4743 8.63086 36.9482 8.63086C37.6423 8.63086 38.2305 8.76416 38.7129 9.03076C39.1995 9.29313 39.5698 9.63802 39.8237 10.0654C40.0776 10.4886 40.2046 10.9414 40.2046 11.4238H38.9858C38.9858 11.0768 38.9118 10.77 38.7637 10.5034C38.6156 10.2326 38.3913 10.021 38.0908 9.86865C37.7904 9.71208 37.4095 9.63379 36.9482 9.63379C36.5124 9.63379 36.1527 9.69938 35.8691 9.83057C35.5856 9.96175 35.374 10.1395 35.2344 10.3638C35.099 10.5881 35.0312 10.8441 35.0312 11.1318C35.0312 11.3265 35.0715 11.5042 35.1519 11.665C35.2365 11.8216 35.3656 11.9676 35.5391 12.103C35.7168 12.2384 35.9411 12.3633 36.2119 12.4775C36.487 12.5918 36.8149 12.7018 37.1958 12.8076C37.7205 12.9557 38.1733 13.1208 38.5542 13.3027C38.9351 13.4847 39.2482 13.6899 39.4937 13.9185C39.7433 14.1427 39.9274 14.3988 40.0459 14.6865C40.1686 14.9701 40.23 15.2917 40.23 15.6514C40.23 16.028 40.1538 16.3687 40.0015 16.6733C39.8491 16.978 39.6312 17.2383 39.3477 17.4541C39.0641 17.6699 38.7235 17.8371 38.3257 17.9556C37.9321 18.0698 37.492 18.127 37.0054 18.127C36.578 18.127 36.1569 18.0677 35.7422 17.9492C35.3317 17.8307 34.9572 17.653 34.6187 17.416C34.2843 17.179 34.0156 16.887 33.8125 16.54C33.6136 16.1888 33.5142 15.7826 33.5142 15.3213H34.7329C34.7329 15.6387 34.7943 15.9116 34.917 16.1401C35.0397 16.3644 35.2069 16.5506 35.4185 16.6987C35.6343 16.8468 35.8776 16.9569 36.1484 17.0288C36.4235 17.0965 36.7091 17.1304 37.0054 17.1304C37.4328 17.1304 37.7946 17.0711 38.0908 16.9526C38.387 16.8341 38.6113 16.6649 38.7637 16.4448C38.9202 16.2248 38.9985 15.9645 38.9985 15.6641ZM47.6631 17.0034V18H42.769V17.0034H47.6631ZM43.0166 8.75781V18H41.7915V8.75781H43.0166ZM47.0156 12.7314V13.728H42.769V12.7314H47.0156ZM47.5996 8.75781V9.76074H42.769V8.75781H47.5996ZM54.7852 17.0034V18H50.1641V17.0034H54.7852ZM50.4053 8.75781V18H49.1802V8.75781H50.4053ZM61.793 17.0034V18H57.1719V17.0034H61.793ZM57.4131 8.75781V18H56.188V8.75781H57.4131Z" fill="#FF4921"/>
<path d="M24.2 18L18.089 11.889C18.0053 11.8046 17.9058 11.7377 17.7961 11.692C17.6864 11.6463 17.5688 11.6228 17.45 11.6228C17.3312 11.6228 17.2136 11.6463 17.1039 11.692C16.9942 11.7377 16.8947 11.8046 16.811 11.889L14.489 14.211C14.4053 14.2954 14.3058 14.3623 14.1961 14.408C14.0864 14.4537 13.9688 14.4772 13.85 14.4772C13.7312 14.4772 13.6136 14.4537 13.5039 14.408C13.3942 14.3623 13.2947 14.2954 13.211 14.211L8 9" stroke="#FF4921" stroke-width="1.5" stroke-linecap="round" stroke-linejoin="round"/>
<path d="M24.2 14.4V18H20.6" stroke="#FF4921" stroke-width="1.5" stroke-linecap="round" stroke-linejoin="round"/>
</svg>
