<svg width="50" height="50" viewBox="0 0 50 50" fill="none" xmlns="http://www.w3.org/2000/svg">
<rect width="49.0909" height="50" rx="24.5455" fill="#E3B12F"/>
<path d="M34.5341 17.4298L28.5972 34.0701C28.4551 34.4833 28.1872 34.8417 27.831 35.0948C27.4747 35.3479 27.0482 35.483 26.6112 35.4811C26.1793 35.4861 25.7564 35.3571 25.4008 35.1119C25.0452 34.8667 24.7742 34.5173 24.6252 34.1119L22.4093 28.3422L24.019 26.7325L26.6216 24.1298C26.8185 23.933 26.929 23.6661 26.929 23.3877C26.929 23.1094 26.8185 22.8424 26.6216 22.6456C26.4248 22.4488 26.1579 22.3382 25.8795 22.3382C25.6012 22.3382 25.3342 22.4488 25.1374 22.6456L22.5348 25.2482L20.8833 26.8684L15.124 24.642C14.6939 24.5124 14.317 24.2478 14.0491 23.8873C13.7811 23.5268 13.6365 23.0895 13.6365 22.6404C13.6365 22.1912 13.7811 21.754 14.0491 21.3934C14.317 21.0329 14.6939 20.7683 15.124 20.6387L31.806 14.7018C32.1875 14.545 32.6069 14.5046 33.0113 14.5857C33.4156 14.6667 33.787 14.8656 34.0787 15.1572C34.3703 15.4488 34.5692 15.8202 34.6502 16.2246C34.7312 16.629 34.6909 17.0483 34.5341 17.4298Z" fill="white"/>
</svg>
