<svg width="160" height="54" viewBox="0 0 160 54" fill="none" xmlns="http://www.w3.org/2000/svg">
<rect width="160" height="54" rx="27" fill="#E3B12F"/>
<path d="M84.2964 29.8623C84.2964 29.6299 84.2604 29.4224 84.1885 29.2397C84.1221 29.0516 83.9976 28.8828 83.8149 28.7334C83.6379 28.5785 83.3861 28.429 83.0596 28.2852C82.7386 28.1357 82.3236 27.9808 81.8145 27.8203C81.25 27.6432 80.7243 27.444 80.2373 27.2227C79.7503 27.0013 79.3215 26.744 78.9507 26.4507C78.5854 26.1574 78.3005 25.8198 78.0957 25.438C77.891 25.0506 77.7886 24.6024 77.7886 24.0933C77.7886 23.5952 77.8937 23.1414 78.104 22.7319C78.3198 22.3224 78.6242 21.971 79.0171 21.6777C79.41 21.3789 79.8721 21.1493 80.4033 20.9888C80.9401 20.8283 81.5322 20.748 82.1797 20.748C83.0762 20.748 83.8509 20.9113 84.5039 21.2378C85.1624 21.5643 85.6715 22.007 86.0312 22.5659C86.391 23.1248 86.5708 23.7529 86.5708 24.4502H84.2964C84.2964 24.0739 84.2161 23.7419 84.0557 23.4541C83.9007 23.1663 83.6628 22.9395 83.3418 22.7734C83.0264 22.6074 82.6279 22.5244 82.1465 22.5244C81.6816 22.5244 81.2943 22.5936 80.9844 22.7319C80.68 22.8703 80.4504 23.0584 80.2954 23.2964C80.146 23.5343 80.0713 23.8 80.0713 24.0933C80.0713 24.3146 80.1239 24.5138 80.229 24.6909C80.3341 24.8625 80.4919 25.0257 80.7021 25.1807C80.9124 25.3301 81.1725 25.4712 81.4824 25.604C81.7979 25.7313 82.1631 25.8586 82.5781 25.9858C83.2422 26.1851 83.8232 26.4064 84.3213 26.6499C84.8249 26.8934 85.2427 27.1701 85.5747 27.48C85.9123 27.7899 86.1641 28.1385 86.3301 28.5259C86.5016 28.9132 86.5874 29.3532 86.5874 29.8457C86.5874 30.3659 86.485 30.8307 86.2803 31.2402C86.0755 31.6497 85.7822 31.9984 85.4004 32.2861C85.0186 32.5739 84.5592 32.7925 84.0225 32.9419C83.4912 33.0913 82.8963 33.166 82.2378 33.166C81.6512 33.166 81.0701 33.0885 80.4946 32.9336C79.9246 32.7731 79.4072 32.5352 78.9424 32.2197C78.4775 31.8988 78.1068 31.4948 77.8301 31.0078C77.5534 30.5153 77.415 29.9398 77.415 29.2812H79.7061C79.7061 29.6631 79.7669 29.9896 79.8887 30.2607C80.016 30.5264 80.193 30.745 80.4199 30.9165C80.6523 31.0825 80.9235 31.2043 81.2334 31.2817C81.5433 31.3592 81.8781 31.3979 82.2378 31.3979C82.7026 31.3979 83.0845 31.3343 83.3833 31.207C83.6877 31.0742 83.9146 30.8916 84.064 30.6592C84.2189 30.4268 84.2964 30.1611 84.2964 29.8623ZM90.3311 20.25V33H88.1313V20.25H90.3311ZM89.9824 28.1855H89.335C89.335 27.5602 89.418 26.9847 89.584 26.459C89.75 25.9333 89.9852 25.4767 90.2896 25.0894C90.5939 24.6965 90.9564 24.3921 91.377 24.1763C91.8031 23.9604 92.2734 23.8525 92.7881 23.8525C93.2308 23.8525 93.632 23.9162 93.9917 24.0435C94.3569 24.1652 94.6696 24.3617 94.9297 24.6328C95.1898 24.904 95.389 25.2581 95.5273 25.6953C95.6712 26.127 95.7432 26.6527 95.7432 27.2725V33H93.5352V27.2559C93.5352 26.8408 93.4743 26.5143 93.3525 26.2764C93.2308 26.0329 93.0565 25.8586 92.8296 25.7534C92.6082 25.6483 92.3343 25.5957 92.0078 25.5957C91.6536 25.5957 91.3493 25.6649 91.0947 25.8032C90.8402 25.936 90.6299 26.1214 90.4639 26.3594C90.3034 26.5973 90.1816 26.8713 90.0986 27.1812C90.0212 27.491 89.9824 27.8258 89.9824 28.1855ZM102.625 31.0908V26.9487C102.625 26.6444 102.572 26.3815 102.467 26.1602C102.362 25.9388 102.201 25.7673 101.985 25.6455C101.77 25.5238 101.496 25.4629 101.164 25.4629C100.87 25.4629 100.613 25.5127 100.392 25.6123C100.176 25.7119 100.01 25.853 99.8936 26.0356C99.7773 26.2127 99.7192 26.4175 99.7192 26.6499H97.5195C97.5195 26.2791 97.6081 25.9277 97.7852 25.5957C97.9622 25.2581 98.214 24.9593 98.5405 24.6992C98.8726 24.4336 99.2682 24.2261 99.7275 24.0767C100.192 23.9272 100.713 23.8525 101.288 23.8525C101.969 23.8525 102.575 23.9688 103.106 24.2012C103.643 24.4281 104.063 24.7712 104.368 25.2305C104.678 25.6898 104.833 26.2681 104.833 26.9653V30.8833C104.833 31.3315 104.86 31.7161 104.916 32.0371C104.976 32.3525 105.065 32.6265 105.181 32.8589V33H102.948C102.843 32.7731 102.763 32.4854 102.708 32.1367C102.652 31.7826 102.625 31.4339 102.625 31.0908ZM102.932 27.5298L102.948 28.833H101.562C101.219 28.833 100.917 28.869 100.657 28.9409C100.397 29.0073 100.184 29.1069 100.018 29.2397C99.8521 29.367 99.7275 29.522 99.6445 29.7046C99.5615 29.8817 99.52 30.0837 99.52 30.3105C99.52 30.5319 99.5698 30.7311 99.6694 30.9082C99.7746 31.0853 99.924 31.2264 100.118 31.3315C100.317 31.4312 100.549 31.481 100.815 31.481C101.202 31.481 101.54 31.4035 101.828 31.2485C102.115 31.0881 102.34 30.8944 102.5 30.6675C102.66 30.4406 102.746 30.2248 102.757 30.02L103.388 30.9663C103.311 31.1932 103.194 31.4339 103.04 31.6885C102.885 31.943 102.685 32.181 102.442 32.4023C102.198 32.6237 101.905 32.8063 101.562 32.9502C101.219 33.0941 100.82 33.166 100.367 33.166C99.7856 33.166 99.2655 33.0498 98.8062 32.8174C98.3468 32.585 97.9844 32.2668 97.7188 31.8628C97.4531 31.4588 97.3203 30.9995 97.3203 30.4849C97.3203 30.009 97.4089 29.5884 97.5859 29.2231C97.763 28.8579 98.0259 28.5508 98.3745 28.3018C98.7231 28.0472 99.1548 27.8563 99.6694 27.729C100.19 27.5962 100.785 27.5298 101.454 27.5298H102.932ZM109 25.853V33H106.808V24.0186H108.883L109 25.853ZM111.73 23.9604L111.697 26.0024C111.576 25.9803 111.437 25.9637 111.282 25.9526C111.133 25.9416 110.992 25.936 110.859 25.936C110.521 25.936 110.225 25.9831 109.971 26.0771C109.716 26.1657 109.503 26.2957 109.332 26.4673C109.166 26.6388 109.038 26.8491 108.95 27.0981C108.861 27.3416 108.811 27.6183 108.8 27.9282L108.327 27.8701C108.327 27.3001 108.385 26.7716 108.501 26.2847C108.618 25.7977 108.786 25.3716 109.008 25.0063C109.229 24.6411 109.506 24.3589 109.838 24.1597C110.175 23.9549 110.563 23.8525 111 23.8525C111.122 23.8525 111.252 23.8636 111.39 23.8857C111.534 23.9023 111.647 23.9272 111.73 23.9604ZM116.802 33.166C116.122 33.166 115.51 33.0553 114.968 32.834C114.425 32.6126 113.963 32.3055 113.582 31.9126C113.205 31.5142 112.915 31.0521 112.71 30.5264C112.511 29.9951 112.411 29.4251 112.411 28.8164V28.4844C112.411 27.7926 112.511 27.1646 112.71 26.6001C112.909 26.0301 113.191 25.5404 113.557 25.1309C113.922 24.7214 114.359 24.4059 114.868 24.1846C115.377 23.9632 115.939 23.8525 116.553 23.8525C117.19 23.8525 117.751 23.9604 118.238 24.1763C118.725 24.3866 119.132 24.6854 119.458 25.0728C119.785 25.4601 120.031 25.925 120.197 26.4673C120.363 27.0041 120.446 27.599 120.446 28.252V29.1733H113.407V27.6626H118.288V27.4966C118.277 27.1479 118.211 26.8298 118.089 26.542C117.967 26.2487 117.779 26.0163 117.524 25.8447C117.27 25.6676 116.941 25.5791 116.537 25.5791C116.21 25.5791 115.925 25.651 115.682 25.7949C115.444 25.9333 115.244 26.1325 115.084 26.3926C114.929 26.6471 114.813 26.9515 114.735 27.3057C114.658 27.6598 114.619 28.0527 114.619 28.4844V28.8164C114.619 29.1927 114.669 29.5413 114.769 29.8623C114.874 30.1833 115.026 30.4627 115.225 30.7007C115.43 30.9331 115.673 31.1157 115.956 31.2485C116.243 31.3758 116.57 31.4395 116.935 31.4395C117.394 31.4395 117.809 31.3509 118.18 31.1738C118.556 30.9912 118.883 30.7228 119.16 30.3687L120.264 31.5142C120.076 31.7909 119.821 32.0565 119.5 32.311C119.185 32.5656 118.803 32.7731 118.354 32.9336C117.906 33.0885 117.389 33.166 116.802 33.166Z" fill="white"/>
<path d="M62.3153 24.9019L54.1309 18.3544C53.8913 18.1644 53.6034 18.0453 53.2996 18.0106C52.9958 17.9759 52.6884 18.0269 52.4122 18.158C52.1336 18.2906 51.8982 18.4993 51.7332 18.76C51.5681 19.0206 51.48 19.3226 51.4792 19.6312V21.579C48.5884 22.3841 45.9818 23.9847 43.9561 26.1985C41.9304 28.4123 40.567 31.1504 40.021 34.1011C39.9614 34.4697 40.0295 34.8475 40.2141 35.172C40.3987 35.4966 40.6886 35.7482 41.0359 35.8853C41.2338 35.9636 41.4451 36.0025 41.6579 35.9999C41.9275 35.9985 42.1926 35.9305 42.4296 35.802C42.6666 35.6735 42.8682 35.4885 43.0165 35.2633C44.9317 32.366 49.1548 31.4821 51.4792 31.2038V32.7261C51.48 33.0347 51.5681 33.3367 51.7332 33.5973C51.8982 33.858 52.1336 34.0667 52.4122 34.1993C52.6884 34.3304 52.9958 34.3814 53.2996 34.3467C53.6034 34.312 53.8913 34.1929 54.1309 34.0029L62.3153 27.4554C62.5064 27.302 62.6607 27.1077 62.7667 26.8867C62.8728 26.6657 62.9278 26.4237 62.9278 26.1786C62.9278 25.9335 62.8728 25.6916 62.7667 25.4706C62.6607 25.2496 62.5064 25.0553 62.3153 24.9019Z" fill="white"/>
</svg>
