<svg width="160" height="50" viewBox="0 0 160 50" fill="none" xmlns="http://www.w3.org/2000/svg">
<rect width="160" height="50" rx="25" fill="#E3B12F"/>
<path d="M61.8853 27.8623C61.8853 27.6299 61.8493 27.4224 61.7773 27.2397C61.7109 27.0516 61.5864 26.8828 61.4038 26.7334C61.2267 26.5785 60.9749 26.429 60.6484 26.2852C60.3275 26.1357 59.9124 25.9808 59.4033 25.8203C58.8389 25.6432 58.3132 25.444 57.8262 25.2227C57.3392 25.0013 56.9103 24.744 56.5396 24.4507C56.1743 24.1574 55.8893 23.8198 55.6846 23.438C55.4798 23.0506 55.3774 22.6024 55.3774 22.0933C55.3774 21.5952 55.4826 21.1414 55.6929 20.7319C55.9087 20.3224 56.2131 19.971 56.606 19.6777C56.9989 19.3789 57.4609 19.1493 57.9922 18.9888C58.529 18.8283 59.1211 18.748 59.7686 18.748C60.665 18.748 61.4398 18.9113 62.0928 19.2378C62.7513 19.5643 63.2604 20.007 63.6201 20.5659C63.9798 21.1248 64.1597 21.7529 64.1597 22.4502H61.8853C61.8853 22.0739 61.805 21.7419 61.6445 21.4541C61.4896 21.1663 61.2516 20.9395 60.9307 20.7734C60.6152 20.6074 60.2168 20.5244 59.7354 20.5244C59.2705 20.5244 58.8831 20.5936 58.5732 20.7319C58.2689 20.8703 58.0392 21.0584 57.8843 21.2964C57.7349 21.5343 57.6602 21.8 57.6602 22.0933C57.6602 22.3146 57.7127 22.5138 57.8179 22.6909C57.923 22.8625 58.0807 23.0257 58.291 23.1807C58.5013 23.3301 58.7614 23.4712 59.0713 23.604C59.3867 23.7313 59.752 23.8586 60.167 23.9858C60.8311 24.1851 61.4121 24.4064 61.9102 24.6499C62.4137 24.8934 62.8315 25.1701 63.1636 25.48C63.5011 25.7899 63.7529 26.1385 63.9189 26.5259C64.0905 26.9132 64.1763 27.3532 64.1763 27.8457C64.1763 28.3659 64.0739 28.8307 63.8691 29.2402C63.6644 29.6497 63.3711 29.9984 62.9893 30.2861C62.6074 30.5739 62.1481 30.7925 61.6113 30.9419C61.0801 31.0913 60.4852 31.166 59.8267 31.166C59.2401 31.166 58.659 31.0885 58.0835 30.9336C57.5135 30.7731 56.9961 30.5352 56.5312 30.2197C56.0664 29.8988 55.6956 29.4948 55.4189 29.0078C55.1423 28.5153 55.0039 27.9398 55.0039 27.2812H57.2949C57.2949 27.6631 57.3558 27.9896 57.4775 28.2607C57.6048 28.5264 57.7819 28.745 58.0088 28.9165C58.2412 29.0825 58.5124 29.2043 58.8223 29.2817C59.1322 29.3592 59.467 29.3979 59.8267 29.3979C60.2915 29.3979 60.6733 29.3343 60.9722 29.207C61.2765 29.0742 61.5034 28.8916 61.6528 28.6592C61.8078 28.4268 61.8853 28.1611 61.8853 27.8623ZM68.0942 22.0186V31H65.8945V22.0186H68.0942ZM65.7451 19.6694C65.7451 19.3429 65.8558 19.0718 66.0771 18.856C66.304 18.6401 66.6084 18.5322 66.9902 18.5322C67.3721 18.5322 67.6737 18.6401 67.895 18.856C68.1219 19.0718 68.2354 19.3429 68.2354 19.6694C68.2354 19.9904 68.1219 20.2588 67.895 20.4746C67.6737 20.6904 67.3721 20.7983 66.9902 20.7983C66.6084 20.7983 66.304 20.6904 66.0771 20.4746C65.8558 20.2588 65.7451 19.9904 65.7451 19.6694ZM75.897 22.0186H77.8892V30.7261C77.8892 31.5396 77.7121 32.2285 77.3579 32.793C77.0093 33.363 76.5195 33.7946 75.8887 34.0879C75.2578 34.3867 74.5246 34.5361 73.689 34.5361C73.3293 34.5361 72.9391 34.4863 72.5186 34.3867C72.1035 34.2871 71.7023 34.1294 71.3149 33.9136C70.9331 33.7033 70.6149 33.4294 70.3604 33.0918L71.3481 31.7969C71.647 32.1455 71.9845 32.4084 72.3608 32.5854C72.7371 32.7681 73.1439 32.8594 73.5811 32.8594C74.0238 32.8594 74.4001 32.7764 74.71 32.6104C75.0254 32.4499 75.2661 32.2119 75.4321 31.8965C75.6037 31.5866 75.6895 31.2048 75.6895 30.751V24.0688L75.897 22.0186ZM69.8291 26.6172V26.4429C69.8291 25.7567 69.9121 25.1341 70.0781 24.5752C70.2441 24.0107 70.4821 23.5265 70.792 23.1226C71.1074 22.7186 71.4865 22.4059 71.9292 22.1846C72.3774 21.9632 72.881 21.8525 73.4399 21.8525C74.0321 21.8525 74.5301 21.9604 74.9341 22.1763C75.3436 22.3921 75.6812 22.6992 75.9468 23.0977C76.2179 23.4961 76.4282 23.9692 76.5776 24.5171C76.7326 25.0594 76.8516 25.6571 76.9346 26.3101V26.7832C76.8571 27.4196 76.7326 28.0034 76.561 28.5347C76.395 29.0659 76.1737 29.5308 75.897 29.9292C75.6203 30.3221 75.2772 30.6265 74.8677 30.8423C74.4582 31.0581 73.9767 31.166 73.4233 31.166C72.87 31.166 72.3719 31.0526 71.9292 30.8257C71.4865 30.5988 71.1074 30.2806 70.792 29.8711C70.4821 29.4616 70.2441 28.9801 70.0781 28.4268C69.9121 27.8734 69.8291 27.2702 69.8291 26.6172ZM72.0205 26.4429V26.6172C72.0205 27.0046 72.0592 27.367 72.1367 27.7046C72.2142 28.0422 72.3332 28.341 72.4937 28.6011C72.6541 28.8556 72.8561 29.0549 73.0996 29.1987C73.3431 29.3426 73.6336 29.4146 73.9712 29.4146C74.425 29.4146 74.7957 29.3205 75.0835 29.1323C75.3768 28.9386 75.5981 28.6758 75.7476 28.3438C75.9025 28.0062 76.0021 27.6271 76.0464 27.2065V25.9033C76.0187 25.5713 75.9578 25.2642 75.8638 24.9819C75.7752 24.6997 75.6507 24.4562 75.4902 24.2515C75.3298 24.0467 75.125 23.8862 74.876 23.77C74.627 23.6538 74.3309 23.5957 73.9878 23.5957C73.6558 23.5957 73.3652 23.6704 73.1162 23.8198C72.8672 23.9637 72.6624 24.1657 72.502 24.4258C72.3415 24.6859 72.2197 24.9875 72.1367 25.3306C72.0592 25.6737 72.0205 26.0444 72.0205 26.4429ZM82.0146 23.936V31H79.8232V22.0186H81.8818L82.0146 23.936ZM81.666 26.1855H81.0186C81.0241 25.5326 81.1126 24.9404 81.2842 24.4092C81.4557 23.8779 81.6965 23.4214 82.0063 23.0396C82.3218 22.6577 82.6953 22.3644 83.127 22.1597C83.5586 21.9549 84.04 21.8525 84.5713 21.8525C85.0029 21.8525 85.3931 21.9134 85.7417 22.0352C86.0903 22.1569 86.3892 22.3506 86.6382 22.6162C86.8927 22.8818 87.0864 23.2305 87.2192 23.6621C87.3576 24.0882 87.4268 24.6139 87.4268 25.2393V31H85.2188V25.2227C85.2188 24.8132 85.1579 24.4894 85.0361 24.2515C84.9199 24.0135 84.7484 23.8447 84.5215 23.7451C84.3001 23.6455 84.0262 23.5957 83.6997 23.5957C83.3621 23.5957 83.0661 23.6649 82.8115 23.8032C82.5625 23.936 82.3522 24.1214 82.1807 24.3594C82.0146 24.5973 81.8874 24.8713 81.7988 25.1812C81.7103 25.491 81.666 25.8258 81.666 26.1855ZM96.1924 18.9141V31H93.9097V18.9141H96.1924ZM100.642 23.936V31H98.4502V22.0186H100.509L100.642 23.936ZM100.293 26.1855H99.6455C99.651 25.5326 99.7396 24.9404 99.9111 24.4092C100.083 23.8779 100.323 23.4214 100.633 23.0396C100.949 22.6577 101.322 22.3644 101.754 22.1597C102.186 21.9549 102.667 21.8525 103.198 21.8525C103.63 21.8525 104.02 21.9134 104.369 22.0352C104.717 22.1569 105.016 22.3506 105.265 22.6162C105.52 22.8818 105.713 23.2305 105.846 23.6621C105.985 24.0882 106.054 24.6139 106.054 25.2393V31H103.846V25.2227C103.846 24.8132 103.785 24.4894 103.663 24.2515C103.547 24.0135 103.375 23.8447 103.148 23.7451C102.927 23.6455 102.653 23.5957 102.327 23.5957C101.989 23.5957 101.693 23.6649 101.438 23.8032C101.189 23.936 100.979 24.1214 100.808 24.3594C100.642 24.5973 100.514 24.8713 100.426 25.1812C100.337 25.491 100.293 25.8258 100.293 26.1855Z" fill="#FFFEFA"/>
</svg>
