<svg width="53" height="59" viewBox="0 0 53 59" fill="none" xmlns="http://www.w3.org/2000/svg">
<path d="M41.875 17.2778C41.875 20.2994 40.9755 23.2532 39.2903 25.7657C37.6051 28.2781 35.2099 30.2363 32.4075 31.3926C29.6051 32.5489 26.5214 32.8515 23.5465 32.262C20.5715 31.6725 17.8387 30.2174 15.6939 28.0808C13.549 25.9442 12.0884 23.2219 11.4966 20.2583C10.9048 17.2947 11.2086 14.2229 12.3693 11.4312C13.5301 8.63958 15.4959 6.25351 18.0179 4.57477C20.54 2.89603 23.5052 2 26.5385 2C30.606 2 34.5069 3.60962 37.383 6.47476C40.2592 9.3399 41.875 13.2259 41.875 17.2778ZM35.7404 32.5556H17.3365C13.269 32.5556 9.36813 34.1652 6.49197 37.0303C3.61581 39.8955 2 43.7814 2 47.8333C2 50.2645 2.96949 52.5961 4.69518 54.3151C6.42088 56.0342 8.76142 57 11.2019 57H41.875C44.3155 57 46.656 56.0342 48.3817 54.3151C50.1074 52.5961 51.0769 50.2645 51.0769 47.8333C51.0769 43.7814 49.4611 39.8955 46.585 37.0303C43.7088 34.1652 39.8079 32.5556 35.7404 32.5556Z" stroke="#949494" stroke-width="3" stroke-linecap="round" stroke-linejoin="round"/>
</svg>
